<svg width="968" height="574" viewBox="0 0 968 574" fill="none" xmlns="http://www.w3.org/2000/svg">
<g clip-path="url(#clip0_179_3)">
<path d="M828.157 825.216C871.314 767.574 895.743 700.238 898.696 630.782C901.65 561.326 883.01 492.507 844.874 432.065C806.737 371.624 750.618 321.959 682.829 288.658C615.041 255.357 538.272 239.741 461.159 243.566C384.046 247.392 309.65 270.507 246.338 310.312C183.027 350.117 133.313 405.033 102.789 468.88C72.2653 532.728 62.1427 602.974 73.5601 671.717C84.9775 740.46 117.482 804.972 167.417 857.995L249.732 795.204C212.781 755.967 188.728 708.229 180.279 657.36C171.83 606.491 179.321 554.509 201.908 507.263C224.495 460.016 261.283 419.38 308.133 389.924C354.983 360.469 410.035 343.364 467.098 340.533C524.16 337.702 580.969 349.258 631.132 373.901C681.295 398.543 722.822 435.294 751.042 480.02C779.263 524.746 793.056 575.672 790.871 627.069C788.686 678.465 770.608 728.293 738.673 770.947L828.157 825.216Z" fill="#1D1D1D"/>
<path d="M746.057 891.437C778.919 839.12 797.52 778.003 799.769 714.963C802.018 651.923 787.824 589.46 758.786 534.601C729.747 479.743 687.015 434.666 635.398 404.441C583.78 374.215 525.325 360.042 466.608 363.514C407.891 366.986 351.242 387.966 303.033 424.095C254.825 460.223 216.971 510.066 193.729 568.016C170.486 625.966 162.779 689.723 171.472 752.117C180.166 814.51 204.916 873.063 242.939 921.188L305.617 864.197C277.481 828.585 259.166 785.256 252.733 739.086C246.3 692.916 252.003 645.735 269.202 602.853C286.401 559.971 314.413 523.088 350.087 496.353C385.76 469.619 427.68 454.093 471.13 451.524C514.58 448.955 557.836 459.443 596.033 481.809C634.229 504.176 665.85 537.532 687.338 578.127C708.827 618.721 719.329 664.943 717.665 711.592C716.001 758.241 702.237 803.467 677.919 842.181L746.057 891.437Z" fill="url(#paint0_linear_179_3)"/>
</g>
<defs>
<linearGradient id="paint0_linear_179_3" x1="484" y1="363" x2="474.5" y2="578.5" gradientUnits="userSpaceOnUse">
<stop stop-color="#EC5656"/>
<stop offset="1" stop-color="#3A1111"/>
</linearGradient>
<clipPath id="clip0_179_3">
<rect width="968" height="574" fill="white"/>
</clipPath>
</defs>
</svg>
