<svg width="968" height="574" viewBox="0 0 968 574" fill="none" xmlns="http://www.w3.org/2000/svg">
<g clip-path="url(#clip0_179_3)">
<rect y="-59.4683" width="100.582" height="597.372" transform="rotate(-37 0 -59.4683)" fill="url(#paint0_linear_179_3)"/>
<path d="M-92.114 -0.49407L-11.7857 -61.0258L405.679 492.968L325.35 553.5L-92.114 -0.49407Z" fill="url(#paint1_linear_179_3)"/>
<rect x="-159" y="96.5317" width="100.582" height="597.372" transform="rotate(-37 -159 96.5317)" fill="url(#paint2_linear_179_3)"/>
<rect x="44" y="-208.468" width="100.582" height="574.629" transform="rotate(-37 44 -208.468)" fill="url(#paint3_linear_179_3)"/>
<rect x="107" y="-99" width="23.179" height="523.228" transform="rotate(-37 107 -99)" fill="url(#paint4_linear_179_3)"/>
</g>
<defs>
<linearGradient id="paint0_linear_179_3" x1="50.291" y1="-59.4683" x2="50.291" y2="537.904" gradientUnits="userSpaceOnUse">
<stop stop-color="#A2BEDF"/>
<stop offset="0.59666" stop-color="#6170BF"/>
<stop offset="1"/>
</linearGradient>
<linearGradient id="paint1_linear_179_3" x1="-36.7924" y1="-10.6453" x2="380.672" y2="543.349" gradientUnits="userSpaceOnUse">
<stop stop-color="#A2BEDF"/>
<stop offset="0.59666" stop-color="#6170BF"/>
<stop offset="1"/>
</linearGradient>
<linearGradient id="paint2_linear_179_3" x1="-108.709" y1="96.5317" x2="-108.709" y2="693.904" gradientUnits="userSpaceOnUse">
<stop stop-color="#A2BEDF"/>
<stop offset="0.59666" stop-color="#6170BF"/>
<stop offset="1"/>
</linearGradient>
<linearGradient id="paint3_linear_179_3" x1="94.291" y1="-208.468" x2="94.291" y2="366.16" gradientUnits="userSpaceOnUse">
<stop stop-color="#A2BEDF"/>
<stop offset="0.59666" stop-color="#6170BF"/>
<stop offset="1"/>
</linearGradient>
<linearGradient id="paint4_linear_179_3" x1="118.59" y1="-99" x2="118.59" y2="424.228" gradientUnits="userSpaceOnUse">
<stop stop-color="#A2BEDF"/>
<stop offset="0.59666" stop-color="#6170BF"/>
<stop offset="1"/>
</linearGradient>
<clipPath id="clip0_179_3">
<rect width="968" height="574" fill="white"/>
</clipPath>
</defs>
</svg>
