<svg width="1567" height="399" viewBox="0 0 1567 399" fill="none" xmlns="http://www.w3.org/2000/svg">
<mask id="path-1-outside-1_26_2" maskUnits="userSpaceOnUse" x="-4" y="-4" width="1574" height="406" fill="black">
<rect fill="white" x="-4" y="-4" width="1574" height="406"/>
<path d="M102.5 32C120.167 32 133.667 34 143 38C152.333 42 160.5 46.3333 167.5 51C171.5 53.3333 174.667 55.1667 177 56.5C179.667 57.5 182.167 58 184.5 58C187.833 58 190.167 56.1666 191.5 52.5C193.167 48.8333 194.5 43.3333 195.5 36H207C206.667 42 206.167 49.1667 205.5 57.5C205.167 65.5 204.833 76.1666 204.5 89.5C204.5 102.833 204.5 120.333 204.5 142H193C192 125.667 188.333 109.833 182 94.5C176 79.1667 167 66.6667 155 57C143.333 47.3333 128.333 42.5 110 42.5C93 42.5 78.8333 47.6666 67.5 58C56.5 68 51 81.3333 51 98C51 112.667 54.6667 125 62 135C69.3333 144.667 79.3333 153.833 92 162.5C105 170.833 119.667 180.167 136 190.5C152.667 201.167 167.667 211.833 181 222.5C194.333 232.833 204.833 244.333 212.5 257C220.167 269.667 224 285 224 303C224 324.667 218.833 342.667 208.5 357C198.5 371 185 381.5 168 388.5C151 395.5 132.333 399 112 399C93.3333 399 78.5 397 67.5 393C56.5 389 47.1667 384.833 39.5 380.5C32.1667 375.833 26.5 373.5 22.5 373.5C19.1667 373.5 16.6667 375.333 15 379C13.6667 382.667 12.5 388.167 11.5 395.5H1.19209e-06C0.666668 388.167 1 379.667 1 370C1.33333 360 1.5 347 1.5 331C1.83333 315 2 294.833 2 270.5H13.5C14.8333 291.167 18.5 310.5 24.5 328.5C30.8333 346.5 40.3333 361 53 372C66 382.667 83.1667 388 104.5 388C115.833 388 126.333 385.833 136 381.5C145.667 377.167 153.5 370.333 159.5 361C165.5 351.667 168.5 339.667 168.5 325C168.5 311.333 165.167 299.333 158.5 289C152.167 278.667 143.167 269.167 131.5 260.5C120.167 251.5 106.833 242.333 91.5 233C75.8333 223 61.1667 213 47.5 203C33.8333 193 22.8333 181.333 14.5 168C6.5 154.667 2.5 138.833 2.5 120.5C2.5 100.167 7.16667 83.5 16.5 70.5C26.1667 57.5 38.5 47.8333 53.5 41.5C68.8333 35.1667 85.1667 32 102.5 32ZM331.344 395.5C317.344 395.5 305.344 392.833 295.344 387.5C285.344 382.167 277.844 374.833 272.844 365.5C267.844 356.167 265.344 345.5 265.344 333.5C265.344 318.833 268.677 307 275.344 298C282.01 288.667 290.51 281.167 300.844 275.5C311.51 269.833 322.677 265.167 334.344 261.5C346.344 257.5 357.51 253.833 367.844 250.5C378.51 246.833 387.177 242.667 393.844 238C400.844 233.333 404.344 227.167 404.344 219.5V185.5C404.344 173.5 402.344 164 398.344 157C394.677 149.667 389.51 144.5 382.844 141.5C376.51 138.5 368.844 137 359.844 137C352.177 137 344.01 138.167 335.344 140.5C326.677 142.5 319.844 146.667 314.844 153C322.177 155 328.177 159 332.844 165C337.844 170.667 340.344 177.833 340.344 186.5C340.344 195.833 337.177 203.167 330.844 208.5C324.844 213.833 317.177 216.5 307.844 216.5C297.51 216.5 289.844 213.333 284.844 207C279.844 200.333 277.344 192.667 277.344 184C277.344 175 279.51 167.667 283.844 162C288.51 156.333 294.51 151 301.844 146C309.844 140.667 320.01 136.167 332.344 132.5C345.01 128.833 359.01 127 374.344 127C388.677 127 401.01 128.667 411.344 132C422.01 135 430.844 140 437.844 147C446.177 154.667 451.677 164.333 454.344 176C457.01 187.333 458.344 201.167 458.344 217.5V355.5C458.344 363.833 459.344 369.833 461.344 373.5C463.677 376.833 467.344 378.5 472.344 378.5C475.677 378.5 478.844 377.667 481.844 376C485.177 374.333 489.01 371.833 493.344 368.5L498.344 377C491.344 382.667 484.177 387.167 476.844 390.5C469.844 393.833 460.844 395.5 449.844 395.5C439.177 395.5 430.51 393.833 423.844 390.5C417.177 387.167 412.177 382.333 408.844 376C405.844 369.667 404.344 361.833 404.344 352.5C395.677 366.5 385.344 377.167 373.344 384.5C361.344 391.833 347.344 395.5 331.344 395.5ZM355.344 371.5C364.677 371.5 373.344 368.833 381.344 363.5C389.677 358.167 397.344 350.167 404.344 339.5V240C400.677 245.333 395.344 250 388.344 254C381.344 257.667 373.844 261.5 365.844 265.5C357.844 269.5 350.177 274.167 342.844 279.5C335.844 284.5 330.01 291 325.344 299C320.677 307 318.344 317.167 318.344 329.5C318.344 342.5 321.677 352.833 328.344 360.5C335.01 367.833 344.01 371.5 355.344 371.5ZM687.285 127C700.619 127 711.452 128.833 719.785 132.5C728.452 135.833 735.618 140.5 741.285 146.5C747.285 152.833 751.452 161 753.785 171C756.452 181 757.785 194.5 757.785 211.5V345.5C757.785 359.5 760.452 369 765.785 374C771.452 379 780.785 381.5 793.785 381.5V392C788.119 391.667 779.285 391.333 767.285 391C755.285 390.333 743.452 390 731.785 390C720.452 390 709.118 390.333 697.785 391C686.785 391.333 678.452 391.667 672.785 392V381.5C684.119 381.5 692.119 379 696.785 374C701.452 369 703.785 359.5 703.785 345.5V197.5C703.785 187.833 702.952 179.167 701.285 171.5C699.619 163.5 696.119 157.167 690.785 152.5C685.452 147.5 677.452 145 666.785 145C654.452 145 643.452 148.5 633.785 155.5C624.452 162.5 616.952 172.167 611.285 184.5C605.952 196.5 603.285 210 603.285 225V345.5C603.285 359.5 605.618 369 610.285 374C615.285 379 623.285 381.5 634.285 381.5V392C628.952 391.667 620.785 391.333 609.785 391C599.118 390.333 587.952 390 576.285 390C564.952 390 553.118 390.333 540.785 391C528.452 391.333 519.285 391.667 513.285 392V381.5C526.285 381.5 535.452 379 540.785 374C546.452 369 549.285 359.5 549.285 345.5V188.5C549.285 173.5 546.785 162.5 541.785 155.5C536.785 148.167 527.285 144.5 513.285 144.5V134C523.952 135 534.285 135.5 544.285 135.5C555.618 135.5 566.118 135 575.785 134C585.785 132.667 594.952 130.833 603.285 128.5V183C611.952 162.333 623.785 147.833 638.785 139.5C654.118 131.167 670.285 127 687.285 127ZM1048.55 -1.95503e-05V337.5C1048.55 352.5 1051.05 363.667 1056.05 371C1061.39 378 1070.89 381.5 1084.55 381.5V392C1074.22 391 1063.89 390.5 1053.55 390.5C1042.22 390.5 1031.55 391 1021.55 392C1011.89 393 1002.89 394.833 994.555 397.5V60C994.555 45 991.888 34 986.555 27C981.555 19.6667 972.221 16 958.555 16V5.49997C969.221 6.49998 979.555 6.99998 989.555 6.99998C1000.55 6.99998 1011.05 6.49998 1021.05 5.49997C1031.05 4.16665 1040.22 2.33332 1048.55 -1.95503e-05ZM936.055 127C950.721 127 964.055 130.167 976.055 136.5C988.388 142.833 997.055 153.5 1002.05 168.5L996.055 174C991.388 162 984.555 153.333 975.555 148C966.555 142.333 956.388 139.5 945.055 139.5C926.055 139.5 910.555 149.667 898.555 170C886.555 190 880.721 221 881.055 263C881.055 290.667 883.388 313.333 888.055 331C892.721 348.333 899.555 361.167 908.555 369.5C917.888 377.833 929.055 382 942.055 382C955.055 382 966.721 376.5 977.055 365.5C987.721 354.5 994.055 338.667 996.055 318L1000.55 328.5C997.221 351.167 989.221 368.667 976.555 381C963.888 393 946.888 399 925.555 399C905.221 399 887.221 394.167 871.555 384.5C856.221 374.5 844.388 359.5 836.055 339.5C827.721 319.167 823.555 293.667 823.555 263C823.555 232.667 828.555 207.5 838.555 187.5C848.888 167.167 862.555 152 879.555 142C896.555 132 915.388 127 936.055 127ZM1269.01 127C1278.68 127 1286.85 129 1293.51 133C1300.51 137 1305.68 142.167 1309.01 148.5C1312.68 154.5 1314.51 161.333 1314.51 169C1314.51 178.667 1311.51 187 1305.51 194C1299.85 200.667 1292.18 204 1282.51 204C1274.18 204 1267.01 201.5 1261.01 196.5C1255.35 191.5 1252.51 184.667 1252.51 176C1252.51 168.667 1254.35 162.5 1258.01 157.5C1262.01 152.167 1266.51 148 1271.51 145C1268.18 142.333 1264.18 141.167 1259.51 141.5C1250.51 141.833 1242.18 144.833 1234.51 150.5C1226.85 155.833 1220.35 162.833 1215.01 171.5C1209.68 179.833 1205.51 188.833 1202.51 198.5C1199.51 208.167 1198.01 217.167 1198.01 225.5V340.5C1198.01 356.833 1202.51 367.833 1211.51 373.5C1220.51 378.833 1233.01 381.5 1249.01 381.5V392C1241.35 391.667 1230.35 391.333 1216.01 391C1202.01 390.333 1187.18 390 1171.51 390C1159.51 390 1147.51 390.333 1135.51 391C1123.51 391.333 1114.35 391.667 1108.01 392V381.5C1121.01 381.5 1130.18 379 1135.51 374C1141.18 369 1144.01 359.5 1144.01 345.5V188.5C1144.01 173.5 1141.51 162.5 1136.51 155.5C1131.51 148.167 1122.01 144.5 1108.01 144.5V134C1118.68 135 1129.01 135.5 1139.01 135.5C1150.35 135.5 1160.85 135 1170.51 134C1180.51 132.667 1189.68 130.833 1198.01 128.5V186C1202.01 176.333 1207.35 167 1214.01 158C1220.68 149 1228.68 141.667 1238.01 136C1247.35 130 1257.68 127 1269.01 127ZM1450.3 127C1472.63 127 1492.46 131.667 1509.8 141C1527.13 150.333 1540.96 165 1551.3 185C1561.63 205 1566.8 231.167 1566.8 263.5C1566.8 295.833 1561.63 322 1551.3 342C1540.96 361.667 1527.13 376.167 1509.8 385.5C1492.46 394.5 1472.63 399 1450.3 399C1428.3 399 1408.46 394.5 1390.8 385.5C1373.13 376.167 1359.13 361.667 1348.8 342C1338.8 322 1333.8 295.833 1333.8 263.5C1333.8 231.167 1338.8 205 1348.8 185C1359.13 165 1373.13 150.333 1390.8 141C1408.46 131.667 1428.3 127 1450.3 127ZM1450.3 137C1432.96 137 1418.8 147 1407.8 167C1396.8 186.667 1391.3 218.833 1391.3 263.5C1391.3 308.167 1396.8 340.333 1407.8 360C1418.8 379.333 1432.96 389 1450.3 389C1467.3 389 1481.3 379.333 1492.3 360C1503.63 340.333 1509.3 308.167 1509.3 263.5C1509.3 218.833 1503.63 186.667 1492.3 167C1481.3 147 1467.3 137 1450.3 137Z"/>
</mask>
<path d="M143 38L141.818 40.7574L141.818 40.7574L143 38ZM167.5 51L165.836 53.4961L165.911 53.546L165.988 53.5913L167.5 51ZM177 56.5L175.512 59.1047L175.721 59.2243L175.947 59.309L177 56.5ZM191.5 52.5L188.769 51.2586L188.721 51.365L188.681 51.4748L191.5 52.5ZM195.5 36V33H192.881L192.528 35.5947L195.5 36ZM207 36L209.995 36.1664L210.171 33H207V36ZM205.5 57.5L202.51 57.2607L202.505 57.3179L202.503 57.3751L205.5 57.5ZM204.5 89.5L201.501 89.425L201.5 89.4625V89.5H204.5ZM204.5 142V145H207.5V142H204.5ZM193 142L190.006 142.183L190.178 145H193V142ZM182 94.5L179.206 95.5932L179.217 95.6193L179.227 95.6453L182 94.5ZM155 57L153.086 59.3101L153.102 59.3233L153.118 59.3363L155 57ZM67.5 58L69.518 60.2198L69.5213 60.2168L67.5 58ZM62 135L59.5808 136.774L59.5952 136.794L59.6099 136.813L62 135ZM92 162.5L90.306 164.976L90.3431 165.001L90.381 165.026L92 162.5ZM136 190.5L137.617 187.973L137.611 187.969L137.604 187.965L136 190.5ZM181 222.5L179.126 224.843L179.144 224.857L179.162 224.871L181 222.5ZM212.5 257L209.934 258.553L209.934 258.553L212.5 257ZM208.5 357L206.066 355.246L206.059 355.256L208.5 357ZM67.5 393L66.4748 395.819L67.5 393ZM39.5 380.5L37.8894 383.031L37.9556 383.073L38.0238 383.112L39.5 380.5ZM15 379L12.2689 377.759L12.2206 377.865L12.1806 377.975L15 379ZM11.5 395.5V398.5H14.1187L14.4725 395.905L11.5 395.5ZM1.19209e-06 395.5L-2.98768 395.228L-3.2851 398.5H1.19209e-06V395.5ZM1 370L-1.99833 369.9L-2 369.95V370H1ZM1.5 331L-1.49935 330.938L-1.5 330.969V331H1.5ZM2 270.5V267.5H-0.999998V270.5H2ZM13.5 270.5L16.4938 270.307L16.3127 267.5H13.5V270.5ZM24.5 328.5L21.654 329.449L21.6618 329.472L21.6701 329.496L24.5 328.5ZM53 372L51.0329 374.265L51.0646 374.293L51.0971 374.319L53 372ZM136 381.5L134.773 378.762L134.773 378.762L136 381.5ZM159.5 361L156.976 359.378L156.976 359.378L159.5 361ZM158.5 289L155.942 290.568L155.96 290.597L155.979 290.626L158.5 289ZM131.5 260.5L129.634 262.849L129.672 262.879L129.711 262.908L131.5 260.5ZM91.5 233L89.8859 235.529L89.9129 235.546L89.9402 235.563L91.5 233ZM47.5 203L45.7285 205.421L45.7285 205.421L47.5 203ZM14.5 168L11.9275 169.543L11.9416 169.567L11.956 169.59L14.5 168ZM16.5 70.5L14.0926 68.7099L14.0777 68.73L14.063 68.7504L16.5 70.5ZM53.5 41.5L52.3547 38.7272L52.3439 38.7317L52.3331 38.7362L53.5 41.5ZM102.5 35C120.017 35 133.038 36.9945 141.818 40.7574L144.182 35.2426C134.295 31.0055 120.316 29 102.5 29V35ZM141.818 40.7574C151.016 44.6995 159.016 48.9494 165.836 53.4961L169.164 48.5038C161.984 43.7172 153.65 39.3005 144.182 35.2426L141.818 40.7574ZM165.988 53.5913C169.991 55.9264 173.167 57.7649 175.512 59.1047L178.488 53.8953C176.166 52.5684 173.009 50.7402 169.012 48.4086L165.988 53.5913ZM175.947 59.309C178.878 60.4083 181.737 61 184.5 61V55C182.596 55 180.455 54.5917 178.053 53.691L175.947 59.309ZM184.5 61C186.751 61 188.843 60.3669 190.603 58.9839C192.328 57.6286 193.52 55.7226 194.319 53.5252L188.681 51.4748C188.146 52.9441 187.505 53.788 186.897 54.266C186.323 54.7164 185.582 55 184.5 55V61ZM194.231 53.7414C196.08 49.6736 197.46 43.8289 198.473 36.4053L192.528 35.5947C191.54 42.8377 190.253 47.993 188.769 51.2586L194.231 53.7414ZM195.5 39H207V33H195.5V39ZM204.005 35.8336C203.673 41.802 203.175 48.9431 202.51 57.2607L208.49 57.7392C209.158 49.3902 209.66 42.198 209.995 36.1664L204.005 35.8336ZM202.503 57.3751C202.168 65.399 201.834 76.0844 201.501 89.425L207.499 89.575C207.832 76.2489 208.165 65.601 208.497 57.6249L202.503 57.3751ZM201.5 89.5C201.5 89.526 201.5 89.5521 201.5 89.5782C201.5 89.6042 201.5 89.6303 201.5 89.6564C201.5 89.6825 201.5 89.7087 201.5 89.7348C201.5 89.7609 201.5 89.7871 201.5 89.8133C201.5 89.8394 201.5 89.8656 201.5 89.8918C201.5 89.918 201.5 89.9442 201.5 89.9705C201.5 89.9967 201.5 90.0229 201.5 90.0492C201.5 90.0755 201.5 90.1017 201.5 90.128C201.5 90.1543 201.5 90.1807 201.5 90.207C201.5 90.2333 201.5 90.2596 201.5 90.286C201.5 90.3124 201.5 90.3387 201.5 90.3651C201.5 90.3915 201.5 90.4179 201.5 90.4444C201.5 90.4708 201.5 90.4972 201.5 90.5237C201.5 90.5501 201.5 90.5766 201.5 90.6031C201.5 90.6296 201.5 90.6561 201.5 90.6826C201.5 90.7091 201.5 90.7356 201.5 90.7622C201.5 90.7887 201.5 90.8153 201.5 90.8419C201.5 90.8685 201.5 90.8951 201.5 90.9217C201.5 90.9483 201.5 90.9749 201.5 91.0016C201.5 91.0282 201.5 91.0549 201.5 91.0816C201.5 91.1082 201.5 91.1349 201.5 91.1616C201.5 91.1884 201.5 91.2151 201.5 91.2418C201.5 91.2686 201.5 91.2953 201.5 91.3221C201.5 91.3489 201.5 91.3757 201.5 91.4025C201.5 91.4293 201.5 91.4561 201.5 91.4829C201.5 91.5098 201.5 91.5366 201.5 91.5635C201.5 91.5903 201.5 91.6172 201.5 91.6441C201.5 91.671 201.5 91.6979 201.5 91.7249C201.5 91.7518 201.5 91.7788 201.5 91.8057C201.5 91.8327 201.5 91.8597 201.5 91.8867C201.5 91.9137 201.5 91.9407 201.5 91.9677C201.5 91.9947 201.5 92.0218 201.5 92.0488C201.5 92.0759 201.5 92.103 201.5 92.13C201.5 92.1571 201.5 92.1842 201.5 92.2114C201.5 92.2385 201.5 92.2656 201.5 92.2928C201.5 92.3199 201.5 92.3471 201.5 92.3743C201.5 92.4015 201.5 92.4287 201.5 92.4559C201.5 92.4831 201.5 92.5103 201.5 92.5376C201.5 92.5648 201.5 92.5921 201.5 92.6194C201.5 92.6467 201.5 92.674 201.5 92.7013C201.5 92.7286 201.5 92.7559 201.5 92.7833C201.5 92.8106 201.5 92.838 201.5 92.8654C201.5 92.8927 201.5 92.9201 201.5 92.9475C201.5 92.9749 201.5 93.0024 201.5 93.0298C201.5 93.0572 201.5 93.0847 201.5 93.1122C201.5 93.1396 201.5 93.1671 201.5 93.1946C201.5 93.2221 201.5 93.2497 201.5 93.2772C201.5 93.3047 201.5 93.3323 201.5 93.3599C201.5 93.3874 201.5 93.415 201.5 93.4426C201.5 93.4702 201.5 93.4978 201.5 93.5255C201.5 93.5531 201.5 93.5807 201.5 93.6084C201.5 93.6361 201.5 93.6637 201.5 93.6914C201.5 93.7191 201.5 93.7468 201.5 93.7746C201.5 93.8023 201.5 93.83 201.5 93.8578C201.5 93.8855 201.5 93.9133 201.5 93.9411C201.5 93.9689 201.5 93.9967 201.5 94.0245C201.5 94.0524 201.5 94.0802 201.5 94.108C201.5 94.1359 201.5 94.1638 201.5 94.1917C201.5 94.2195 201.5 94.2474 201.5 94.2754C201.5 94.3033 201.5 94.3312 201.5 94.3592C201.5 94.3871 201.5 94.4151 201.5 94.443C201.5 94.471 201.5 94.499 201.5 94.527C201.5 94.5551 201.5 94.5831 201.5 94.6111C201.5 94.6392 201.5 94.6672 201.5 94.6953C201.5 94.7234 201.5 94.7515 201.5 94.7796C201.5 94.8077 201.5 94.8358 201.5 94.864C201.5 94.8921 201.5 94.9202 201.5 94.9484C201.5 94.9766 201.5 95.0048 201.5 95.033C201.5 95.0612 201.5 95.0894 201.5 95.1176C201.5 95.1459 201.5 95.1741 201.5 95.2024C201.5 95.2307 201.5 95.2589 201.5 95.2872C201.5 95.3155 201.5 95.3439 201.5 95.3722C201.5 95.4005 201.5 95.4289 201.5 95.4572C201.5 95.4856 201.5 95.514 201.5 95.5424C201.5 95.5708 201.5 95.5992 201.5 95.6276C201.5 95.656 201.5 95.6845 201.5 95.7129C201.5 95.7414 201.5 95.7698 201.5 95.7983C201.5 95.8268 201.5 95.8553 201.5 95.8839C201.5 95.9124 201.5 95.9409 201.5 95.9695C201.5 95.998 201.5 96.0266 201.5 96.0552C201.5 96.0838 201.5 96.1124 201.5 96.141C201.5 96.1696 201.5 96.1982 201.5 96.2269C201.5 96.2555 201.5 96.2842 201.5 96.3129C201.5 96.3415 201.5 96.3702 201.5 96.3989C201.5 96.4277 201.5 96.4564 201.5 96.4851C201.5 96.5139 201.5 96.5426 201.5 96.5714C201.5 96.6002 201.5 96.629 201.5 96.6578C201.5 96.6866 201.5 96.7154 201.5 96.7443C201.5 96.7731 201.5 96.802 201.5 96.8308C201.5 96.8597 201.5 96.8886 201.5 96.9175C201.5 96.9464 201.5 96.9753 201.5 97.0042C201.5 97.0332 201.5 97.0621 201.5 97.0911C201.5 97.1201 201.5 97.149 201.5 97.178C201.5 97.207 201.5 97.236 201.5 97.2651C201.5 97.2941 201.5 97.3232 201.5 97.3522C201.5 97.3813 201.5 97.4104 201.5 97.4394C201.5 97.4685 201.5 97.4976 201.5 97.5268C201.5 97.5559 201.5 97.585 201.5 97.6142C201.5 97.6434 201.5 97.6725 201.5 97.7017C201.5 97.7309 201.5 97.7601 201.5 97.7893C201.5 97.8186 201.5 97.8478 201.5 97.877C201.5 97.9063 201.5 97.9356 201.5 97.9648C201.5 97.9941 201.5 98.0234 201.5 98.0527C201.5 98.0821 201.5 98.1114 201.5 98.1407C201.5 98.1701 201.5 98.1995 201.5 98.2288C201.5 98.2582 201.5 98.2876 201.5 98.317C201.5 98.3464 201.5 98.3759 201.5 98.4053C201.5 98.4347 201.5 98.4642 201.5 98.4937C201.5 98.5232 201.5 98.5526 201.5 98.5821C201.5 98.6117 201.5 98.6412 201.5 98.6707C201.5 98.7003 201.5 98.7298 201.5 98.7594C201.5 98.789 201.5 98.8185 201.5 98.8481C201.5 98.8777 201.5 98.9074 201.5 98.937C201.5 98.9666 201.5 98.9963 201.5 99.0259C201.5 99.0556 201.5 99.0853 201.5 99.115C201.5 99.1447 201.5 99.1744 201.5 99.2041C201.5 99.2339 201.5 99.2636 201.5 99.2934C201.5 99.3231 201.5 99.3529 201.5 99.3827C201.5 99.4125 201.5 99.4423 201.5 99.4721C201.5 99.5019 201.5 99.5318 201.5 99.5616C201.5 99.5915 201.5 99.6214 201.5 99.6513C201.5 99.6811 201.5 99.711 201.5 99.741C201.5 99.7709 201.5 99.8008 201.5 99.8308C201.5 99.8607 201.5 99.8907 201.5 99.9207C201.5 99.9507 201.5 99.9807 201.5 100.011C201.5 100.041 201.5 100.071 201.5 100.101C201.5 100.131 201.5 100.161 201.5 100.191C201.5 100.221 201.5 100.251 201.5 100.281C201.5 100.311 201.5 100.341 201.5 100.372C201.5 100.402 201.5 100.432 201.5 100.462C201.5 100.492 201.5 100.522 201.5 100.553C201.5 100.583 201.5 100.613 201.5 100.643C201.5 100.674 201.5 100.704 201.5 100.734C201.5 100.764 201.5 100.795 201.5 100.825C201.5 100.855 201.5 100.886 201.5 100.916C201.5 100.946 201.5 100.977 201.5 101.007C201.5 101.037 201.5 101.068 201.5 101.098C201.5 101.128 201.5 101.159 201.5 101.189C201.5 101.22 201.5 101.25 201.5 101.281C201.5 101.311 201.5 101.342 201.5 101.372C201.5 101.403 201.5 101.433 201.5 101.464C201.5 101.494 201.5 101.525 201.5 101.555C201.5 101.586 201.5 101.616 201.5 101.647C201.5 101.678 201.5 101.708 201.5 101.739C201.5 101.769 201.5 101.8 201.5 101.831C201.5 101.861 201.5 101.892 201.5 101.923C201.5 101.953 201.5 101.984 201.5 102.015C201.5 102.045 201.5 102.076 201.5 102.107C201.5 102.138 201.5 102.168 201.5 102.199C201.5 102.23 201.5 102.261 201.5 102.292C201.5 102.322 201.5 102.353 201.5 102.384C201.5 102.415 201.5 102.446 201.5 102.477C201.5 102.508 201.5 102.538 201.5 102.569C201.5 102.6 201.5 102.631 201.5 102.662C201.5 102.693 201.5 102.724 201.5 102.755C201.5 102.786 201.5 102.817 201.5 102.848C201.5 102.879 201.5 102.91 201.5 102.941C201.5 102.972 201.5 103.003 201.5 103.034C201.5 103.065 201.5 103.096 201.5 103.127C201.5 103.158 201.5 103.19 201.5 103.221C201.5 103.252 201.5 103.283 201.5 103.314C201.5 103.345 201.5 103.376 201.5 103.408C201.5 103.439 201.5 103.47 201.5 103.501C201.5 103.533 201.5 103.564 201.5 103.595C201.5 103.626 201.5 103.658 201.5 103.689C201.5 103.72 201.5 103.751 201.5 103.783C201.5 103.814 201.5 103.845 201.5 103.877C201.5 103.908 201.5 103.939 201.5 103.971C201.5 104.002 201.5 104.034 201.5 104.065C201.5 104.096 201.5 104.128 201.5 104.159C201.5 104.191 201.5 104.222 201.5 104.254C201.5 104.285 201.5 104.317 201.5 104.348C201.5 104.38 201.5 104.411 201.5 104.443C201.5 104.474 201.5 104.506 201.5 104.537C201.5 104.569 201.5 104.601 201.5 104.632C201.5 104.664 201.5 104.695 201.5 104.727C201.5 104.759 201.5 104.79 201.5 104.822C201.5 104.854 201.5 104.885 201.5 104.917C201.5 104.949 201.5 104.98 201.5 105.012C201.5 105.044 201.5 105.076 201.5 105.107C201.5 105.139 201.5 105.171 201.5 105.203C201.5 105.235 201.5 105.266 201.5 105.298C201.5 105.33 201.5 105.362 201.5 105.394C201.5 105.426 201.5 105.457 201.5 105.489C201.5 105.521 201.5 105.553 201.5 105.585C201.5 105.617 201.5 105.649 201.5 105.681C201.5 105.713 201.5 105.745 201.5 105.777C201.5 105.809 201.5 105.841 201.5 105.873C201.5 105.905 201.5 105.937 201.5 105.969C201.5 106.001 201.5 106.033 201.5 106.065C201.5 106.097 201.5 106.129 201.5 106.161C201.5 106.194 201.5 106.226 201.5 106.258C201.5 106.29 201.5 106.322 201.5 106.354C201.5 106.386 201.5 106.419 201.5 106.451C201.5 106.483 201.5 106.515 201.5 106.548C201.5 106.58 201.5 106.612 201.5 106.644C201.5 106.677 201.5 106.709 201.5 106.741C201.5 106.773 201.5 106.806 201.5 106.838C201.5 106.87 201.5 106.903 201.5 106.935C201.5 106.968 201.5 107 201.5 107.032C201.5 107.065 201.5 107.097 201.5 107.13C201.5 107.162 201.5 107.194 201.5 107.227C201.5 107.259 201.5 107.292 201.5 107.324C201.5 107.357 201.5 107.389 201.5 107.422C201.5 107.454 201.5 107.487 201.5 107.52C201.5 107.552 201.5 107.585 201.5 107.617C201.5 107.65 201.5 107.682 201.5 107.715C201.5 107.748 201.5 107.78 201.5 107.813C201.5 107.846 201.5 107.878 201.5 107.911C201.5 107.944 201.5 107.976 201.5 108.009C201.5 108.042 201.5 108.075 201.5 108.107C201.5 108.14 201.5 108.173 201.5 108.206C201.5 108.238 201.5 108.271 201.5 108.304C201.5 108.337 201.5 108.37 201.5 108.402C201.5 108.435 201.5 108.468 201.5 108.501C201.5 108.534 201.5 108.567 201.5 108.6C201.5 108.633 201.5 108.666 201.5 108.699C201.5 108.731 201.5 108.764 201.5 108.797C201.5 108.83 201.5 108.863 201.5 108.896C201.5 108.929 201.5 108.962 201.5 108.995C201.5 109.028 201.5 109.061 201.5 109.095C201.5 109.128 201.5 109.161 201.5 109.194C201.5 109.227 201.5 109.26 201.5 109.293C201.5 109.326 201.5 109.359 201.5 109.393C201.5 109.426 201.5 109.459 201.5 109.492C201.5 109.525 201.5 109.559 201.5 109.592C201.5 109.625 201.5 109.658 201.5 109.691C201.5 109.725 201.5 109.758 201.5 109.791C201.5 109.825 201.5 109.858 201.5 109.891C201.5 109.925 201.5 109.958 201.5 109.991C201.5 110.025 201.5 110.058 201.5 110.091C201.5 110.125 201.5 110.158 201.5 110.192C201.5 110.225 201.5 110.258 201.5 110.292C201.5 110.325 201.5 110.359 201.5 110.392C201.5 110.426 201.5 110.459 201.5 110.493C201.5 110.526 201.5 110.56 201.5 110.593C201.5 110.627 201.5 110.66 201.5 110.694C201.5 110.728 201.5 110.761 201.5 110.795C201.5 110.828 201.5 110.862 201.5 110.896C201.5 110.929 201.5 110.963 201.5 110.997C201.5 111.03 201.5 111.064 201.5 111.098C201.5 111.131 201.5 111.165 201.5 111.199C201.5 111.233 201.5 111.266 201.5 111.3C201.5 111.334 201.5 111.368 201.5 111.401C201.5 111.435 201.5 111.469 201.5 111.503C201.5 111.537 201.5 111.571 201.5 111.604C201.5 111.638 201.5 111.672 201.5 111.706C201.5 111.74 201.5 111.774 201.5 111.808C201.5 111.842 201.5 111.876 201.5 111.91C201.5 111.944 201.5 111.977 201.5 112.011C201.5 112.045 201.5 112.079 201.5 112.113C201.5 112.148 201.5 112.182 201.5 112.216C201.5 112.25 201.5 112.284 201.5 112.318C201.5 112.352 201.5 112.386 201.5 112.42C201.5 112.454 201.5 112.488 201.5 112.523C201.5 112.557 201.5 112.591 201.5 112.625C201.5 112.659 201.5 112.693 201.5 112.728C201.5 112.762 201.5 112.796 201.5 112.83C201.5 112.865 201.5 112.899 201.5 112.933C201.5 112.967 201.5 113.002 201.5 113.036C201.5 113.07 201.5 113.105 201.5 113.139C201.5 113.173 201.5 113.208 201.5 113.242C201.5 113.276 201.5 113.311 201.5 113.345C201.5 113.38 201.5 113.414 201.5 113.448C201.5 113.483 201.5 113.517 201.5 113.552C201.5 113.586 201.5 113.621 201.5 113.655C201.5 113.69 201.5 113.724 201.5 113.759C201.5 113.793 201.5 113.828 201.5 113.862C201.5 113.897 201.5 113.931 201.5 113.966C201.5 114.001 201.5 114.035 201.5 114.07C201.5 114.105 201.5 114.139 201.5 114.174C201.5 114.208 201.5 114.243 201.5 114.278C201.5 114.313 201.5 114.347 201.5 114.382C201.5 114.417 201.5 114.451 201.5 114.486C201.5 114.521 201.5 114.556 201.5 114.59C201.5 114.625 201.5 114.66 201.5 114.695C201.5 114.73 201.5 114.765 201.5 114.799C201.5 114.834 201.5 114.869 201.5 114.904C201.5 114.939 201.5 114.974 201.5 115.009C201.5 115.044 201.5 115.078 201.5 115.113C201.5 115.148 201.5 115.183 201.5 115.218C201.5 115.253 201.5 115.288 201.5 115.323C201.5 115.358 201.5 115.393 201.5 115.428C201.5 115.463 201.5 115.498 201.5 115.533C201.5 115.569 201.5 115.604 201.5 115.639C201.5 115.674 201.5 115.709 201.5 115.744C201.5 115.779 201.5 115.814 201.5 115.85C201.5 115.885 201.5 115.92 201.5 115.955C201.5 115.99 201.5 116.025 201.5 116.061C201.5 116.096 201.5 116.131 201.5 116.166C201.5 116.202 201.5 116.237 201.5 116.272C201.5 116.308 201.5 116.343 201.5 116.378C201.5 116.414 201.5 116.449 201.5 116.484C201.5 116.52 201.5 116.555 201.5 116.59C201.5 116.626 201.5 116.661 201.5 116.697C201.5 116.732 201.5 116.767 201.5 116.803C201.5 116.838 201.5 116.874 201.5 116.909C201.5 116.945 201.5 116.98 201.5 117.016C201.5 117.051 201.5 117.087 201.5 117.122C201.5 117.158 201.5 117.193 201.5 117.229C201.5 117.265 201.5 117.3 201.5 117.336C201.5 117.371 201.5 117.407 201.5 117.443C201.5 117.478 201.5 117.514 201.5 117.55C201.5 117.585 201.5 117.621 201.5 117.657C201.5 117.692 201.5 117.728 201.5 117.764C201.5 117.8 201.5 117.835 201.5 117.871C201.5 117.907 201.5 117.943 201.5 117.979C201.5 118.014 201.5 118.05 201.5 118.086C201.5 118.122 201.5 118.158 201.5 118.194C201.5 118.229 201.5 118.265 201.5 118.301C201.5 118.337 201.5 118.373 201.5 118.409C201.5 118.445 201.5 118.481 201.5 118.517C201.5 118.553 201.5 118.589 201.5 118.625C201.5 118.661 201.5 118.697 201.5 118.733C201.5 118.769 201.5 118.805 201.5 118.841C201.5 118.877 201.5 118.913 201.5 118.949C201.5 118.985 201.5 119.021 201.5 119.057C201.5 119.093 201.5 119.13 201.5 119.166C201.5 119.202 201.5 119.238 201.5 119.274C201.5 119.31 201.5 119.347 201.5 119.383C201.5 119.419 201.5 119.455 201.5 119.492C201.5 119.528 201.5 119.564 201.5 119.6C201.5 119.637 201.5 119.673 201.5 119.709C201.5 119.745 201.5 119.782 201.5 119.818C201.5 119.854 201.5 119.891 201.5 119.927C201.5 119.964 201.5 120 201.5 120.036C201.5 120.073 201.5 120.109 201.5 120.146C201.5 120.182 201.5 120.219 201.5 120.255C201.5 120.291 201.5 120.328 201.5 120.364C201.5 120.401 201.5 120.437 201.5 120.474C201.5 120.511 201.5 120.547 201.5 120.584C201.5 120.62 201.5 120.657 201.5 120.693C201.5 120.73 201.5 120.767 201.5 120.803C201.5 120.84 201.5 120.876 201.5 120.913C201.5 120.95 201.5 120.986 201.5 121.023C201.5 121.06 201.5 121.097 201.5 121.133C201.5 121.17 201.5 121.207 201.5 121.244C201.5 121.28 201.5 121.317 201.5 121.354C201.5 121.391 201.5 121.427 201.5 121.464C201.5 121.501 201.5 121.538 201.5 121.575C201.5 121.612 201.5 121.648 201.5 121.685C201.5 121.722 201.5 121.759 201.5 121.796C201.5 121.833 201.5 121.87 201.5 121.907C201.5 121.944 201.5 121.981 201.5 122.018C201.5 122.055 201.5 122.092 201.5 122.129C201.5 122.166 201.5 122.203 201.5 122.24C201.5 122.277 201.5 122.314 201.5 122.351C201.5 122.388 201.5 122.425 201.5 122.462C201.5 122.499 201.5 122.536 201.5 122.574C201.5 122.611 201.5 122.648 201.5 122.685C201.5 122.722 201.5 122.759 201.5 122.797C201.5 122.834 201.5 122.871 201.5 122.908C201.5 122.945 201.5 122.983 201.5 123.02C201.5 123.057 201.5 123.094 201.5 123.132C201.5 123.169 201.5 123.206 201.5 123.244C201.5 123.281 201.5 123.318 201.5 123.356C201.5 123.393 201.5 123.43 201.5 123.468C201.5 123.505 201.5 123.543 201.5 123.58C201.5 123.618 201.5 123.655 201.5 123.692C201.5 123.73 201.5 123.767 201.5 123.805C201.5 123.842 201.5 123.88 201.5 123.917C201.5 123.955 201.5 123.992 201.5 124.03C201.5 124.067 201.5 124.105 201.5 124.143C201.5 124.18 201.5 124.218 201.5 124.255C201.5 124.293 201.5 124.331 201.5 124.368C201.5 124.406 201.5 124.444 201.5 124.481C201.5 124.519 201.5 124.557 201.5 124.594C201.5 124.632 201.5 124.67 201.5 124.708C201.5 124.745 201.5 124.783 201.5 124.821C201.5 124.859 201.5 124.896 201.5 124.934C201.5 124.972 201.5 125.01 201.5 125.048C201.5 125.085 201.5 125.123 201.5 125.161C201.5 125.199 201.5 125.237 201.5 125.275C201.5 125.313 201.5 125.351 201.5 125.389C201.5 125.426 201.5 125.464 201.5 125.502C201.5 125.54 201.5 125.578 201.5 125.616C201.5 125.654 201.5 125.692 201.5 125.73C201.5 125.768 201.5 125.806 201.5 125.844C201.5 125.883 201.5 125.921 201.5 125.959C201.5 125.997 201.5 126.035 201.5 126.073C201.5 126.111 201.5 126.149 201.5 126.187C201.5 126.226 201.5 126.264 201.5 126.302C201.5 126.34 201.5 126.378 201.5 126.417C201.5 126.455 201.5 126.493 201.5 126.531C201.5 126.569 201.5 126.608 201.5 126.646C201.5 126.684 201.5 126.723 201.5 126.761C201.5 126.799 201.5 126.838 201.5 126.876C201.5 126.914 201.5 126.953 201.5 126.991C201.5 127.029 201.5 127.068 201.5 127.106C201.5 127.145 201.5 127.183 201.5 127.221C201.5 127.26 201.5 127.298 201.5 127.337C201.5 127.375 201.5 127.414 201.5 127.452C201.5 127.491 201.5 127.529 201.5 127.568C201.5 127.606 201.5 127.645 201.5 127.683C201.5 127.722 201.5 127.761 201.5 127.799C201.5 127.838 201.5 127.876 201.5 127.915C201.5 127.954 201.5 127.992 201.5 128.031C201.5 128.07 201.5 128.108 201.5 128.147C201.5 128.186 201.5 128.224 201.5 128.263C201.5 128.302 201.5 128.341 201.5 128.379C201.5 128.418 201.5 128.457 201.5 128.496C201.5 128.535 201.5 128.573 201.5 128.612C201.5 128.651 201.5 128.69 201.5 128.729C201.5 128.767 201.5 128.806 201.5 128.845C201.5 128.884 201.5 128.923 201.5 128.962C201.5 129.001 201.5 129.04 201.5 129.079C201.5 129.118 201.5 129.157 201.5 129.196C201.5 129.235 201.5 129.274 201.5 129.313C201.5 129.352 201.5 129.391 201.5 129.43C201.5 129.469 201.5 129.508 201.5 129.547C201.5 129.586 201.5 129.625 201.5 129.664C201.5 129.703 201.5 129.742 201.5 129.782C201.5 129.821 201.5 129.86 201.5 129.899C201.5 129.938 201.5 129.977 201.5 130.017C201.5 130.056 201.5 130.095 201.5 130.134C201.5 130.173 201.5 130.213 201.5 130.252C201.5 130.291 201.5 130.331 201.5 130.37C201.5 130.409 201.5 130.448 201.5 130.488C201.5 130.527 201.5 130.566 201.5 130.606C201.5 130.645 201.5 130.685 201.5 130.724C201.5 130.763 201.5 130.803 201.5 130.842C201.5 130.882 201.5 130.921 201.5 130.96C201.5 131 201.5 131.039 201.5 131.079C201.5 131.118 201.5 131.158 201.5 131.197C201.5 131.237 201.5 131.276 201.5 131.316C201.5 131.356 201.5 131.395 201.5 131.435C201.5 131.474 201.5 131.514 201.5 131.553C201.5 131.593 201.5 131.633 201.5 131.672C201.5 131.712 201.5 131.752 201.5 131.791C201.5 131.831 201.5 131.871 201.5 131.91C201.5 131.95 201.5 131.99 201.5 132.03C201.5 132.069 201.5 132.109 201.5 132.149C201.5 132.189 201.5 132.228 201.5 132.268C201.5 132.308 201.5 132.348 201.5 132.388C201.5 132.428 201.5 132.467 201.5 132.507C201.5 132.547 201.5 132.587 201.5 132.627C201.5 132.667 201.5 132.707 201.5 132.747C201.5 132.787 201.5 132.827 201.5 132.867C201.5 132.907 201.5 132.947 201.5 132.987C201.5 133.027 201.5 133.067 201.5 133.107C201.5 133.147 201.5 133.187 201.5 133.227C201.5 133.267 201.5 133.307 201.5 133.347C201.5 133.387 201.5 133.427 201.5 133.467C201.5 133.507 201.5 133.548 201.5 133.588C201.5 133.628 201.5 133.668 201.5 133.708C201.5 133.748 201.5 133.789 201.5 133.829C201.5 133.869 201.5 133.909 201.5 133.95C201.5 133.99 201.5 134.03 201.5 134.07C201.5 134.111 201.5 134.151 201.5 134.191C201.5 134.232 201.5 134.272 201.5 134.312C201.5 134.353 201.5 134.393 201.5 134.433C201.5 134.474 201.5 134.514 201.5 134.554C201.5 134.595 201.5 134.635 201.5 134.676C201.5 134.716 201.5 134.757 201.5 134.797C201.5 134.838 201.5 134.878 201.5 134.919C201.5 134.959 201.5 135 201.5 135.04C201.5 135.081 201.5 135.121 201.5 135.162C201.5 135.202 201.5 135.243 201.5 135.284C201.5 135.324 201.5 135.365 201.5 135.405C201.5 135.446 201.5 135.487 201.5 135.527C201.5 135.568 201.5 135.609 201.5 135.649C201.5 135.69 201.5 135.731 201.5 135.772C201.5 135.812 201.5 135.853 201.5 135.894C201.5 135.935 201.5 135.975 201.5 136.016C201.5 136.057 201.5 136.098 201.5 136.139C201.5 136.179 201.5 136.22 201.5 136.261C201.5 136.302 201.5 136.343 201.5 136.384C201.5 136.425 201.5 136.465 201.5 136.506C201.5 136.547 201.5 136.588 201.5 136.629C201.5 136.67 201.5 136.711 201.5 136.752C201.5 136.793 201.5 136.834 201.5 136.875C201.5 136.916 201.5 136.957 201.5 136.998C201.5 137.039 201.5 137.08 201.5 137.121C201.5 137.162 201.5 137.204 201.5 137.245C201.5 137.286 201.5 137.327 201.5 137.368C201.5 137.409 201.5 137.45 201.5 137.491C201.5 137.533 201.5 137.574 201.5 137.615C201.5 137.656 201.5 137.697 201.5 137.739C201.5 137.78 201.5 137.821 201.5 137.862C201.5 137.904 201.5 137.945 201.5 137.986C201.5 138.028 201.5 138.069 201.5 138.11C201.5 138.152 201.5 138.193 201.5 138.234C201.5 138.276 201.5 138.317 201.5 138.358C201.5 138.4 201.5 138.441 201.5 138.483C201.5 138.524 201.5 138.566 201.5 138.607C201.5 138.648 201.5 138.69 201.5 138.731C201.5 138.773 201.5 138.814 201.5 138.856C201.5 138.897 201.5 138.939 201.5 138.981C201.5 139.022 201.5 139.064 201.5 139.105C201.5 139.147 201.5 139.188 201.5 139.23C201.5 139.272 201.5 139.313 201.5 139.355C201.5 139.397 201.5 139.438 201.5 139.48C201.5 139.522 201.5 139.563 201.5 139.605C201.5 139.647 201.5 139.689 201.5 139.73C201.5 139.772 201.5 139.814 201.5 139.856C201.5 139.897 201.5 139.939 201.5 139.981C201.5 140.023 201.5 140.065 201.5 140.106C201.5 140.148 201.5 140.19 201.5 140.232C201.5 140.274 201.5 140.316 201.5 140.358C201.5 140.4 201.5 140.441 201.5 140.483C201.5 140.525 201.5 140.567 201.5 140.609C201.5 140.651 201.5 140.693 201.5 140.735C201.5 140.777 201.5 140.819 201.5 140.861C201.5 140.903 201.5 140.945 201.5 140.987C201.5 141.029 201.5 141.072 201.5 141.114C201.5 141.156 201.5 141.198 201.5 141.24C201.5 141.282 201.5 141.324 201.5 141.366C201.5 141.409 201.5 141.451 201.5 141.493C201.5 141.535 201.5 141.577 201.5 141.62C201.5 141.662 201.5 141.704 201.5 141.746C201.5 141.789 201.5 141.831 201.5 141.873C201.5 141.915 201.5 141.958 201.5 142H207.5C207.5 141.958 207.5 141.915 207.5 141.873C207.5 141.831 207.5 141.789 207.5 141.746C207.5 141.704 207.5 141.662 207.5 141.62C207.5 141.577 207.5 141.535 207.5 141.493C207.5 141.451 207.5 141.409 207.5 141.366C207.5 141.324 207.5 141.282 207.5 141.24C207.5 141.198 207.5 141.156 207.5 141.114C207.5 141.072 207.5 141.029 207.5 140.987C207.5 140.945 207.5 140.903 207.5 140.861C207.5 140.819 207.5 140.777 207.5 140.735C207.5 140.693 207.5 140.651 207.5 140.609C207.5 140.567 207.5 140.525 207.5 140.483C207.5 140.441 207.5 140.4 207.5 140.358C207.5 140.316 207.5 140.274 207.5 140.232C207.5 140.19 207.5 140.148 207.5 140.106C207.5 140.065 207.5 140.023 207.5 139.981C207.5 139.939 207.5 139.897 207.5 139.856C207.5 139.814 207.5 139.772 207.5 139.73C207.5 139.689 207.5 139.647 207.5 139.605C207.5 139.563 207.5 139.522 207.5 139.48C207.5 139.438 207.5 139.397 207.5 139.355C207.5 139.313 207.5 139.272 207.5 139.23C207.5 139.188 207.5 139.147 207.5 139.105C207.5 139.064 207.5 139.022 207.5 138.981C207.5 138.939 207.5 138.897 207.5 138.856C207.5 138.814 207.5 138.773 207.5 138.731C207.5 138.69 207.5 138.648 207.5 138.607C207.5 138.566 207.5 138.524 207.5 138.483C207.5 138.441 207.5 138.4 207.5 138.358C207.5 138.317 207.5 138.276 207.5 138.234C207.5 138.193 207.5 138.152 207.5 138.11C207.5 138.069 207.5 138.028 207.5 137.986C207.5 137.945 207.5 137.904 207.5 137.862C207.5 137.821 207.5 137.78 207.5 137.739C207.5 137.697 207.5 137.656 207.5 137.615C207.5 137.574 207.5 137.533 207.5 137.491C207.5 137.45 207.5 137.409 207.5 137.368C207.5 137.327 207.5 137.286 207.5 137.245C207.5 137.204 207.5 137.162 207.5 137.121C207.5 137.08 207.5 137.039 207.5 136.998C207.5 136.957 207.5 136.916 207.5 136.875C207.5 136.834 207.5 136.793 207.5 136.752C207.5 136.711 207.5 136.67 207.5 136.629C207.5 136.588 207.5 136.547 207.5 136.506C207.5 136.465 207.5 136.425 207.5 136.384C207.5 136.343 207.5 136.302 207.5 136.261C207.5 136.22 207.5 136.179 207.5 136.139C207.5 136.098 207.5 136.057 207.5 136.016C207.5 135.975 207.5 135.935 207.5 135.894C207.5 135.853 207.5 135.812 207.5 135.772C207.5 135.731 207.5 135.69 207.5 135.649C207.5 135.609 207.5 135.568 207.5 135.527C207.5 135.487 207.5 135.446 207.5 135.405C207.5 135.365 207.5 135.324 207.5 135.284C207.5 135.243 207.5 135.202 207.5 135.162C207.5 135.121 207.5 135.081 207.5 135.04C207.5 135 207.5 134.959 207.5 134.919C207.5 134.878 207.5 134.838 207.5 134.797C207.5 134.757 207.5 134.716 207.5 134.676C207.5 134.635 207.5 134.595 207.5 134.554C207.5 134.514 207.5 134.474 207.5 134.433C207.5 134.393 207.5 134.353 207.5 134.312C207.5 134.272 207.5 134.232 207.5 134.191C207.5 134.151 207.5 134.111 207.5 134.07C207.5 134.03 207.5 133.99 207.5 133.95C207.5 133.909 207.5 133.869 207.5 133.829C207.5 133.789 207.5 133.748 207.5 133.708C207.5 133.668 207.5 133.628 207.5 133.588C207.5 133.548 207.5 133.507 207.5 133.467C207.5 133.427 207.5 133.387 207.5 133.347C207.5 133.307 207.5 133.267 207.5 133.227C207.5 133.187 207.5 133.147 207.5 133.107C207.5 133.067 207.5 133.027 207.5 132.987C207.5 132.947 207.5 132.907 207.5 132.867C207.5 132.827 207.5 132.787 207.5 132.747C207.5 132.707 207.5 132.667 207.5 132.627C207.5 132.587 207.5 132.547 207.5 132.507C207.5 132.467 207.5 132.428 207.5 132.388C207.5 132.348 207.5 132.308 207.5 132.268C207.5 132.228 207.5 132.189 207.5 132.149C207.5 132.109 207.5 132.069 207.5 132.03C207.5 131.99 207.5 131.95 207.5 131.91C207.5 131.871 207.5 131.831 207.5 131.791C207.5 131.752 207.5 131.712 207.5 131.672C207.5 131.633 207.5 131.593 207.5 131.553C207.5 131.514 207.5 131.474 207.5 131.435C207.5 131.395 207.5 131.356 207.5 131.316C207.5 131.276 207.5 131.237 207.5 131.197C207.5 131.158 207.5 131.118 207.5 131.079C207.5 131.039 207.5 131 207.5 130.96C207.5 130.921 207.5 130.882 207.5 130.842C207.5 130.803 207.5 130.763 207.5 130.724C207.5 130.685 207.5 130.645 207.5 130.606C207.5 130.566 207.5 130.527 207.5 130.488C207.5 130.448 207.5 130.409 207.5 130.37C207.5 130.331 207.5 130.291 207.5 130.252C207.5 130.213 207.5 130.173 207.5 130.134C207.5 130.095 207.5 130.056 207.5 130.017C207.5 129.977 207.5 129.938 207.5 129.899C207.5 129.86 207.5 129.821 207.5 129.782C207.5 129.742 207.5 129.703 207.5 129.664C207.5 129.625 207.5 129.586 207.5 129.547C207.5 129.508 207.5 129.469 207.5 129.43C207.5 129.391 207.5 129.352 207.5 129.313C207.5 129.274 207.5 129.235 207.5 129.196C207.5 129.157 207.5 129.118 207.5 129.079C207.5 129.04 207.5 129.001 207.5 128.962C207.5 128.923 207.5 128.884 207.5 128.845C207.5 128.806 207.5 128.767 207.5 128.729C207.5 128.69 207.5 128.651 207.5 128.612C207.5 128.573 207.5 128.535 207.5 128.496C207.5 128.457 207.5 128.418 207.5 128.379C207.5 128.341 207.5 128.302 207.5 128.263C207.5 128.224 207.5 128.186 207.5 128.147C207.5 128.108 207.5 128.07 207.5 128.031C207.5 127.992 207.5 127.954 207.5 127.915C207.5 127.876 207.5 127.838 207.5 127.799C207.5 127.761 207.5 127.722 207.5 127.683C207.5 127.645 207.5 127.606 207.5 127.568C207.5 127.529 207.5 127.491 207.5 127.452C207.5 127.414 207.5 127.375 207.5 127.337C207.5 127.298 207.5 127.26 207.5 127.221C207.5 127.183 207.5 127.145 207.5 127.106C207.5 127.068 207.5 127.029 207.5 126.991C207.5 126.953 207.5 126.914 207.5 126.876C207.5 126.838 207.5 126.799 207.5 126.761C207.5 126.723 207.5 126.684 207.5 126.646C207.5 126.608 207.5 126.569 207.5 126.531C207.5 126.493 207.5 126.455 207.5 126.417C207.5 126.378 207.5 126.34 207.5 126.302C207.5 126.264 207.5 126.226 207.5 126.187C207.5 126.149 207.5 126.111 207.5 126.073C207.5 126.035 207.5 125.997 207.5 125.959C207.5 125.921 207.5 125.883 207.5 125.844C207.5 125.806 207.5 125.768 207.5 125.73C207.5 125.692 207.5 125.654 207.5 125.616C207.5 125.578 207.5 125.54 207.5 125.502C207.5 125.464 207.5 125.426 207.5 125.389C207.5 125.351 207.5 125.313 207.5 125.275C207.5 125.237 207.5 125.199 207.5 125.161C207.5 125.123 207.5 125.085 207.5 125.048C207.5 125.01 207.5 124.972 207.5 124.934C207.5 124.896 207.5 124.859 207.5 124.821C207.5 124.783 207.5 124.745 207.5 124.708C207.5 124.67 207.5 124.632 207.5 124.594C207.5 124.557 207.5 124.519 207.5 124.481C207.5 124.444 207.5 124.406 207.5 124.368C207.5 124.331 207.5 124.293 207.5 124.255C207.5 124.218 207.5 124.18 207.5 124.143C207.5 124.105 207.5 124.067 207.5 124.03C207.5 123.992 207.5 123.955 207.5 123.917C207.5 123.88 207.5 123.842 207.5 123.805C207.5 123.767 207.5 123.73 207.5 123.692C207.5 123.655 207.5 123.618 207.5 123.58C207.5 123.543 207.5 123.505 207.5 123.468C207.5 123.43 207.5 123.393 207.5 123.356C207.5 123.318 207.5 123.281 207.5 123.244C207.5 123.206 207.5 123.169 207.5 123.132C207.5 123.094 207.5 123.057 207.5 123.02C207.5 122.983 207.5 122.945 207.5 122.908C207.5 122.871 207.5 122.834 207.5 122.797C207.5 122.759 207.5 122.722 207.5 122.685C207.5 122.648 207.5 122.611 207.5 122.574C207.5 122.536 207.5 122.499 207.5 122.462C207.5 122.425 207.5 122.388 207.5 122.351C207.5 122.314 207.5 122.277 207.5 122.24C207.5 122.203 207.5 122.166 207.5 122.129C207.5 122.092 207.5 122.055 207.5 122.018C207.5 121.981 207.5 121.944 207.5 121.907C207.5 121.87 207.5 121.833 207.5 121.796C207.5 121.759 207.5 121.722 207.5 121.685C207.5 121.648 207.5 121.612 207.5 121.575C207.5 121.538 207.5 121.501 207.5 121.464C207.5 121.427 207.5 121.391 207.5 121.354C207.5 121.317 207.5 121.28 207.5 121.244C207.5 121.207 207.5 121.17 207.5 121.133C207.5 121.097 207.5 121.06 207.5 121.023C207.5 120.986 207.5 120.95 207.5 120.913C207.5 120.876 207.5 120.84 207.5 120.803C207.5 120.767 207.5 120.73 207.5 120.693C207.5 120.657 207.5 120.62 207.5 120.584C207.5 120.547 207.5 120.511 207.5 120.474C207.5 120.437 207.5 120.401 207.5 120.364C207.5 120.328 207.5 120.291 207.5 120.255C207.5 120.219 207.5 120.182 207.5 120.146C207.5 120.109 207.5 120.073 207.5 120.036C207.5 120 207.5 119.964 207.5 119.927C207.5 119.891 207.5 119.854 207.5 119.818C207.5 119.782 207.5 119.745 207.5 119.709C207.5 119.673 207.5 119.637 207.5 119.6C207.5 119.564 207.5 119.528 207.5 119.492C207.5 119.455 207.5 119.419 207.5 119.383C207.5 119.347 207.5 119.31 207.5 119.274C207.5 119.238 207.5 119.202 207.5 119.166C207.5 119.13 207.5 119.093 207.5 119.057C207.5 119.021 207.5 118.985 207.5 118.949C207.5 118.913 207.5 118.877 207.5 118.841C207.5 118.805 207.5 118.769 207.5 118.733C207.5 118.697 207.5 118.661 207.5 118.625C207.5 118.589 207.5 118.553 207.5 118.517C207.5 118.481 207.5 118.445 207.5 118.409C207.5 118.373 207.5 118.337 207.5 118.301C207.5 118.265 207.5 118.229 207.5 118.194C207.5 118.158 207.5 118.122 207.5 118.086C207.5 118.05 207.5 118.014 207.5 117.979C207.5 117.943 207.5 117.907 207.5 117.871C207.5 117.835 207.5 117.8 207.5 117.764C207.5 117.728 207.5 117.692 207.5 117.657C207.5 117.621 207.5 117.585 207.5 117.55C207.5 117.514 207.5 117.478 207.5 117.443C207.5 117.407 207.5 117.371 207.5 117.336C207.5 117.3 207.5 117.265 207.5 117.229C207.5 117.193 207.5 117.158 207.5 117.122C207.5 117.087 207.5 117.051 207.5 117.016C207.5 116.98 207.5 116.945 207.5 116.909C207.5 116.874 207.5 116.838 207.5 116.803C207.5 116.767 207.5 116.732 207.5 116.697C207.5 116.661 207.5 116.626 207.5 116.59C207.5 116.555 207.5 116.52 207.5 116.484C207.5 116.449 207.5 116.414 207.5 116.378C207.5 116.343 207.5 116.308 207.5 116.272C207.5 116.237 207.5 116.202 207.5 116.166C207.5 116.131 207.5 116.096 207.5 116.061C207.5 116.025 207.5 115.99 207.5 115.955C207.5 115.92 207.5 115.885 207.5 115.85C207.5 115.814 207.5 115.779 207.5 115.744C207.5 115.709 207.5 115.674 207.5 115.639C207.5 115.604 207.5 115.569 207.5 115.533C207.5 115.498 207.5 115.463 207.5 115.428C207.5 115.393 207.5 115.358 207.5 115.323C207.5 115.288 207.5 115.253 207.5 115.218C207.5 115.183 207.5 115.148 207.5 115.113C207.5 115.078 207.5 115.044 207.5 115.009C207.5 114.974 207.5 114.939 207.5 114.904C207.5 114.869 207.5 114.834 207.5 114.799C207.5 114.765 207.5 114.73 207.5 114.695C207.5 114.66 207.5 114.625 207.5 114.59C207.5 114.556 207.5 114.521 207.5 114.486C207.5 114.451 207.5 114.417 207.5 114.382C207.5 114.347 207.5 114.313 207.5 114.278C207.5 114.243 207.5 114.208 207.5 114.174C207.5 114.139 207.5 114.105 207.5 114.07C207.5 114.035 207.5 114.001 207.5 113.966C207.5 113.931 207.5 113.897 207.5 113.862C207.5 113.828 207.5 113.793 207.5 113.759C207.5 113.724 207.5 113.69 207.5 113.655C207.5 113.621 207.5 113.586 207.5 113.552C207.5 113.517 207.5 113.483 207.5 113.448C207.5 113.414 207.5 113.38 207.5 113.345C207.5 113.311 207.5 113.276 207.5 113.242C207.5 113.208 207.5 113.173 207.5 113.139C207.5 113.105 207.5 113.07 207.5 113.036C207.5 113.002 207.5 112.967 207.5 112.933C207.5 112.899 207.5 112.865 207.5 112.83C207.5 112.796 207.5 112.762 207.5 112.728C207.5 112.693 207.5 112.659 207.5 112.625C207.5 112.591 207.5 112.557 207.5 112.523C207.5 112.488 207.5 112.454 207.5 112.42C207.5 112.386 207.5 112.352 207.5 112.318C207.5 112.284 207.5 112.25 207.5 112.216C207.5 112.182 207.5 112.148 207.5 112.113C207.5 112.079 207.5 112.045 207.5 112.011C207.5 111.977 207.5 111.944 207.5 111.91C207.5 111.876 207.5 111.842 207.5 111.808C207.5 111.774 207.5 111.74 207.5 111.706C207.5 111.672 207.5 111.638 207.5 111.604C207.5 111.571 207.5 111.537 207.5 111.503C207.5 111.469 207.5 111.435 207.5 111.401C207.5 111.368 207.5 111.334 207.5 111.3C207.5 111.266 207.5 111.233 207.5 111.199C207.5 111.165 207.5 111.131 207.5 111.098C207.5 111.064 207.5 111.03 207.5 110.997C207.5 110.963 207.5 110.929 207.5 110.896C207.5 110.862 207.5 110.828 207.5 110.795C207.5 110.761 207.5 110.728 207.5 110.694C207.5 110.66 207.5 110.627 207.5 110.593C207.5 110.56 207.5 110.526 207.5 110.493C207.5 110.459 207.5 110.426 207.5 110.392C207.5 110.359 207.5 110.325 207.5 110.292C207.5 110.258 207.5 110.225 207.5 110.192C207.5 110.158 207.5 110.125 207.5 110.091C207.5 110.058 207.5 110.025 207.5 109.991C207.5 109.958 207.5 109.925 207.5 109.891C207.5 109.858 207.5 109.825 207.5 109.791C207.5 109.758 207.5 109.725 207.5 109.691C207.5 109.658 207.5 109.625 207.5 109.592C207.5 109.559 207.5 109.525 207.5 109.492C207.5 109.459 207.5 109.426 207.5 109.393C207.5 109.359 207.5 109.326 207.5 109.293C207.5 109.26 207.5 109.227 207.5 109.194C207.5 109.161 207.5 109.128 207.5 109.095C207.5 109.061 207.5 109.028 207.5 108.995C207.5 108.962 207.5 108.929 207.5 108.896C207.5 108.863 207.5 108.83 207.5 108.797C207.5 108.764 207.5 108.731 207.5 108.699C207.5 108.666 207.5 108.633 207.5 108.6C207.5 108.567 207.5 108.534 207.5 108.501C207.5 108.468 207.5 108.435 207.5 108.402C207.5 108.37 207.5 108.337 207.5 108.304C207.5 108.271 207.5 108.238 207.5 108.206C207.5 108.173 207.5 108.14 207.5 108.107C207.5 108.075 207.5 108.042 207.5 108.009C207.5 107.976 207.5 107.944 207.5 107.911C207.5 107.878 207.5 107.846 207.5 107.813C207.5 107.78 207.5 107.748 207.5 107.715C207.5 107.682 207.5 107.65 207.5 107.617C207.5 107.585 207.5 107.552 207.5 107.52C207.5 107.487 207.5 107.454 207.5 107.422C207.5 107.389 207.5 107.357 207.5 107.324C207.5 107.292 207.5 107.259 207.5 107.227C207.5 107.194 207.5 107.162 207.5 107.13C207.5 107.097 207.5 107.065 207.5 107.032C207.5 107 207.5 106.968 207.5 106.935C207.5 106.903 207.5 106.87 207.5 106.838C207.5 106.806 207.5 106.773 207.5 106.741C207.5 106.709 207.5 106.677 207.5 106.644C207.5 106.612 207.5 106.58 207.5 106.548C207.5 106.515 207.5 106.483 207.5 106.451C207.5 106.419 207.5 106.386 207.5 106.354C207.5 106.322 207.5 106.29 207.5 106.258C207.5 106.226 207.5 106.194 207.5 106.161C207.5 106.129 207.5 106.097 207.5 106.065C207.5 106.033 207.5 106.001 207.5 105.969C207.5 105.937 207.5 105.905 207.5 105.873C207.5 105.841 207.5 105.809 207.5 105.777C207.5 105.745 207.5 105.713 207.5 105.681C207.5 105.649 207.5 105.617 207.5 105.585C207.5 105.553 207.5 105.521 207.5 105.489C207.5 105.457 207.5 105.426 207.5 105.394C207.5 105.362 207.5 105.33 207.5 105.298C207.5 105.266 207.5 105.235 207.5 105.203C207.5 105.171 207.5 105.139 207.5 105.107C207.5 105.076 207.5 105.044 207.5 105.012C207.5 104.98 207.5 104.949 207.5 104.917C207.5 104.885 207.5 104.854 207.5 104.822C207.5 104.79 207.5 104.759 207.5 104.727C207.5 104.695 207.5 104.664 207.5 104.632C207.5 104.601 207.5 104.569 207.5 104.537C207.5 104.506 207.5 104.474 207.5 104.443C207.5 104.411 207.5 104.38 207.5 104.348C207.5 104.317 207.5 104.285 207.5 104.254C207.5 104.222 207.5 104.191 207.5 104.159C207.5 104.128 207.5 104.096 207.5 104.065C207.5 104.034 207.5 104.002 207.5 103.971C207.5 103.939 207.5 103.908 207.5 103.877C207.5 103.845 207.5 103.814 207.5 103.783C207.5 103.751 207.5 103.72 207.5 103.689C207.5 103.658 207.5 103.626 207.5 103.595C207.5 103.564 207.5 103.533 207.5 103.501C207.5 103.47 207.5 103.439 207.5 103.408C207.5 103.376 207.5 103.345 207.5 103.314C207.5 103.283 207.5 103.252 207.5 103.221C207.5 103.19 207.5 103.158 207.5 103.127C207.5 103.096 207.5 103.065 207.5 103.034C207.5 103.003 207.5 102.972 207.5 102.941C207.5 102.91 207.5 102.879 207.5 102.848C207.5 102.817 207.5 102.786 207.5 102.755C207.5 102.724 207.5 102.693 207.5 102.662C207.5 102.631 207.5 102.6 207.5 102.569C207.5 102.538 207.5 102.508 207.5 102.477C207.5 102.446 207.5 102.415 207.5 102.384C207.5 102.353 207.5 102.322 207.5 102.292C207.5 102.261 207.5 102.23 207.5 102.199C207.5 102.168 207.5 102.138 207.5 102.107C207.5 102.076 207.5 102.045 207.5 102.015C207.5 101.984 207.5 101.953 207.5 101.923C207.5 101.892 207.5 101.861 207.5 101.831C207.5 101.8 207.5 101.769 207.5 101.739C207.5 101.708 207.5 101.678 207.5 101.647C207.5 101.616 207.5 101.586 207.5 101.555C207.5 101.525 207.5 101.494 207.5 101.464C207.5 101.433 207.5 101.403 207.5 101.372C207.5 101.342 207.5 101.311 207.5 101.281C207.5 101.25 207.5 101.22 207.5 101.189C207.5 101.159 207.5 101.128 207.5 101.098C207.5 101.068 207.5 101.037 207.5 101.007C207.5 100.977 207.5 100.946 207.5 100.916C207.5 100.886 207.5 100.855 207.5 100.825C207.5 100.795 207.5 100.764 207.5 100.734C207.5 100.704 207.5 100.674 207.5 100.643C207.5 100.613 207.5 100.583 207.5 100.553C207.5 100.522 207.5 100.492 207.5 100.462C207.5 100.432 207.5 100.402 207.5 100.372C207.5 100.341 207.5 100.311 207.5 100.281C207.5 100.251 207.5 100.221 207.5 100.191C207.5 100.161 207.5 100.131 207.5 100.101C207.5 100.071 207.5 100.041 207.5 100.011C207.5 99.9807 207.5 99.9507 207.5 99.9207C207.5 99.8907 207.5 99.8607 207.5 99.8308C207.5 99.8008 207.5 99.7709 207.5 99.741C207.5 99.711 207.5 99.6811 207.5 99.6513C207.5 99.6214 207.5 99.5915 207.5 99.5616C207.5 99.5318 207.5 99.5019 207.5 99.4721C207.5 99.4423 207.5 99.4125 207.5 99.3827C207.5 99.3529 207.5 99.3231 207.5 99.2934C207.5 99.2636 207.5 99.2339 207.5 99.2041C207.5 99.1744 207.5 99.1447 207.5 99.115C207.5 99.0853 207.5 99.0556 207.5 99.0259C207.5 98.9963 207.5 98.9666 207.5 98.937C207.5 98.9074 207.5 98.8777 207.5 98.8481C207.5 98.8185 207.5 98.789 207.5 98.7594C207.5 98.7298 207.5 98.7003 207.5 98.6707C207.5 98.6412 207.5 98.6117 207.5 98.5821C207.5 98.5526 207.5 98.5232 207.5 98.4937C207.5 98.4642 207.5 98.4347 207.5 98.4053C207.5 98.3759 207.5 98.3464 207.5 98.317C207.5 98.2876 207.5 98.2582 207.5 98.2288C207.5 98.1995 207.5 98.1701 207.5 98.1407C207.5 98.1114 207.5 98.0821 207.5 98.0527C207.5 98.0234 207.5 97.9941 207.5 97.9648C207.5 97.9356 207.5 97.9063 207.5 97.877C207.5 97.8478 207.5 97.8186 207.5 97.7893C207.5 97.7601 207.5 97.7309 207.5 97.7017C207.5 97.6725 207.5 97.6434 207.5 97.6142C207.5 97.585 207.5 97.5559 207.5 97.5268C207.5 97.4976 207.5 97.4685 207.5 97.4394C207.5 97.4104 207.5 97.3813 207.5 97.3522C207.5 97.3232 207.5 97.2941 207.5 97.2651C207.5 97.236 207.5 97.207 207.5 97.178C207.5 97.149 207.5 97.1201 207.5 97.0911C207.5 97.0621 207.5 97.0332 207.5 97.0042C207.5 96.9753 207.5 96.9464 207.5 96.9175C207.5 96.8886 207.5 96.8597 207.5 96.8308C207.5 96.802 207.5 96.7731 207.5 96.7443C207.5 96.7154 207.5 96.6866 207.5 96.6578C207.5 96.629 207.5 96.6002 207.5 96.5714C207.5 96.5426 207.5 96.5139 207.5 96.4851C207.5 96.4564 207.5 96.4277 207.5 96.3989C207.5 96.3702 207.5 96.3415 207.5 96.3129C207.5 96.2842 207.5 96.2555 207.5 96.2269C207.5 96.1982 207.5 96.1696 207.5 96.141C207.5 96.1124 207.5 96.0838 207.5 96.0552C207.5 96.0266 207.5 95.998 207.5 95.9695C207.5 95.9409 207.5 95.9124 207.5 95.8839C207.5 95.8553 207.5 95.8268 207.5 95.7983C207.5 95.7698 207.5 95.7414 207.5 95.7129C207.5 95.6845 207.5 95.656 207.5 95.6276C207.5 95.5992 207.5 95.5708 207.5 95.5424C207.5 95.514 207.5 95.4856 207.5 95.4572C207.5 95.4289 207.5 95.4005 207.5 95.3722C207.5 95.3439 207.5 95.3155 207.5 95.2872C207.5 95.2589 207.5 95.2307 207.5 95.2024C207.5 95.1741 207.5 95.1459 207.5 95.1176C207.5 95.0894 207.5 95.0612 207.5 95.033C207.5 95.0048 207.5 94.9766 207.5 94.9484C207.5 94.9202 207.5 94.8921 207.5 94.864C207.5 94.8358 207.5 94.8077 207.5 94.7796C207.5 94.7515 207.5 94.7234 207.5 94.6953C207.5 94.6672 207.5 94.6392 207.5 94.6111C207.5 94.5831 207.5 94.5551 207.5 94.527C207.5 94.499 207.5 94.471 207.5 94.443C207.5 94.4151 207.5 94.3871 207.5 94.3592C207.5 94.3312 207.5 94.3033 207.5 94.2754C207.5 94.2474 207.5 94.2195 207.5 94.1917C207.5 94.1638 207.5 94.1359 207.5 94.108C207.5 94.0802 207.5 94.0524 207.5 94.0245C207.5 93.9967 207.5 93.9689 207.5 93.9411C207.5 93.9133 207.5 93.8855 207.5 93.8578C207.5 93.83 207.5 93.8023 207.5 93.7746C207.5 93.7468 207.5 93.7191 207.5 93.6914C207.5 93.6637 207.5 93.6361 207.5 93.6084C207.5 93.5807 207.5 93.5531 207.5 93.5255C207.5 93.4978 207.5 93.4702 207.5 93.4426C207.5 93.415 207.5 93.3874 207.5 93.3599C207.5 93.3323 207.5 93.3047 207.5 93.2772C207.5 93.2497 207.5 93.2221 207.5 93.1946C207.5 93.1671 207.5 93.1396 207.5 93.1122C207.5 93.0847 207.5 93.0572 207.5 93.0298C207.5 93.0024 207.5 92.9749 207.5 92.9475C207.5 92.9201 207.5 92.8927 207.5 92.8654C207.5 92.838 207.5 92.8106 207.5 92.7833C207.5 92.7559 207.5 92.7286 207.5 92.7013C207.5 92.674 207.5 92.6467 207.5 92.6194C207.5 92.5921 207.5 92.5648 207.5 92.5376C207.5 92.5103 207.5 92.4831 207.5 92.4559C207.5 92.4287 207.5 92.4015 207.5 92.3743C207.5 92.3471 207.5 92.3199 207.5 92.2928C207.5 92.2656 207.5 92.2385 207.5 92.2114C207.5 92.1842 207.5 92.1571 207.5 92.13C207.5 92.103 207.5 92.0759 207.5 92.0488C207.5 92.0218 207.5 91.9947 207.5 91.9677C207.5 91.9407 207.5 91.9137 207.5 91.8867C207.5 91.8597 207.5 91.8327 207.5 91.8057C207.5 91.7788 207.5 91.7518 207.5 91.7249C207.5 91.6979 207.5 91.671 207.5 91.6441C207.5 91.6172 207.5 91.5903 207.5 91.5635C207.5 91.5366 207.5 91.5098 207.5 91.4829C207.5 91.4561 207.5 91.4293 207.5 91.4025C207.5 91.3757 207.5 91.3489 207.5 91.3221C207.5 91.2953 207.5 91.2686 207.5 91.2418C207.5 91.2151 207.5 91.1884 207.5 91.1616C207.5 91.1349 207.5 91.1082 207.5 91.0816C207.5 91.0549 207.5 91.0282 207.5 91.0016C207.5 90.9749 207.5 90.9483 207.5 90.9217C207.5 90.8951 207.5 90.8685 207.5 90.8419C207.5 90.8153 207.5 90.7887 207.5 90.7622C207.5 90.7356 207.5 90.7091 207.5 90.6826C207.5 90.6561 207.5 90.6296 207.5 90.6031C207.5 90.5766 207.5 90.5501 207.5 90.5237C207.5 90.4972 207.5 90.4708 207.5 90.4444C207.5 90.4179 207.5 90.3915 207.5 90.3651C207.5 90.3387 207.5 90.3124 207.5 90.286C207.5 90.2596 207.5 90.2333 207.5 90.207C207.5 90.1807 207.5 90.1543 207.5 90.128C207.5 90.1017 207.5 90.0755 207.5 90.0492C207.5 90.0229 207.5 89.9967 207.5 89.9705C207.5 89.9442 207.5 89.918 207.5 89.8918C207.5 89.8656 207.5 89.8394 207.5 89.8133C207.5 89.7871 207.5 89.7609 207.5 89.7348C207.5 89.7087 207.5 89.6825 207.5 89.6564C207.5 89.6303 207.5 89.6042 207.5 89.5782C207.5 89.5521 207.5 89.526 207.5 89.5H201.5ZM204.5 139H193V145H204.5V139ZM195.994 141.817C194.974 125.148 191.231 108.99 184.773 93.3547L179.227 95.6453C185.436 110.677 189.026 126.185 190.006 142.183L195.994 141.817ZM184.794 93.4068C178.617 77.6213 169.317 64.6807 156.882 54.6637L153.118 59.3363C164.683 68.6526 173.383 80.712 179.206 95.5932L184.794 93.4068ZM156.914 54.6899C144.602 44.4889 128.88 39.5 110 39.5V45.5C127.787 45.5 142.064 50.1778 153.086 59.3101L156.914 54.6899ZM110 39.5C92.3399 39.5 77.4262 44.8898 65.4787 55.7831L69.5213 60.2168C80.2405 50.4434 93.6602 45.5 110 45.5V39.5ZM65.482 55.7802C53.7772 66.4209 48 80.6017 48 98H54C54 82.065 59.2228 69.5791 69.518 60.2198L65.482 55.7802ZM48 98C48 113.185 51.8048 126.17 59.5808 136.774L64.4192 133.226C57.5286 123.83 54 112.149 54 98H48ZM59.6099 136.813C67.1819 146.794 77.4404 156.173 90.306 164.976L93.6941 160.024C81.2263 151.494 71.4848 142.539 64.3901 133.187L59.6099 136.813ZM90.381 165.026C103.387 173.363 118.059 182.699 134.396 193.035L137.604 187.965C121.274 177.634 106.613 168.304 93.619 159.974L90.381 165.026ZM134.383 193.027C150.974 203.645 165.887 214.251 179.126 224.843L182.874 220.157C169.447 209.415 154.359 198.688 137.617 187.973L134.383 193.027ZM179.162 224.871C192.245 235.01 202.482 246.242 209.934 258.553L215.067 255.447C207.185 242.424 196.422 230.657 182.838 220.129L179.162 224.871ZM209.934 258.553C217.261 270.66 221 285.429 221 303H227C227 284.571 223.072 268.674 215.067 255.447L209.934 258.553ZM221 303C221 324.182 215.955 341.529 206.066 355.246L210.934 358.754C221.712 343.804 227 325.152 227 303H221ZM206.059 355.256C196.409 368.766 183.374 378.925 166.858 385.726L169.142 391.274C186.626 384.075 200.591 373.234 210.941 358.744L206.059 355.256ZM166.858 385.726C150.257 392.562 131.983 396 112 396V402C132.684 402 151.743 398.438 169.142 391.274L166.858 385.726ZM112 396C93.5003 396 79.0603 394.012 68.5252 390.181L66.4748 395.819C77.9398 399.988 93.1663 402 112 402V396ZM68.5252 390.181C57.6336 386.22 48.4604 382.119 40.9762 377.888L38.0238 383.112C45.8729 387.548 55.3664 391.78 66.4748 395.819L68.5252 390.181ZM41.1106 377.969C33.7415 373.28 27.4343 370.5 22.5 370.5V376.5C25.5657 376.5 30.5918 378.387 37.8894 383.031L41.1106 377.969ZM22.5 370.5C20.2461 370.5 18.155 371.133 16.3509 372.456C14.5803 373.754 13.2531 375.593 12.2689 377.759L17.7311 380.241C18.4136 378.74 19.1697 377.829 19.8991 377.294C20.595 376.784 21.4206 376.5 22.5 376.5V370.5ZM12.1806 377.975C10.7359 381.948 9.53556 387.702 8.52751 395.095L14.4725 395.905C15.4644 388.631 16.5975 383.385 17.8194 380.025L12.1806 377.975ZM11.5 392.5H1.19209e-06V398.5H11.5V392.5ZM2.98768 395.772C3.66463 388.325 4 379.731 4 370H-2C-2 379.602 -2.33129 388.008 -2.98768 395.228L2.98768 395.772ZM3.99834 370.1C4.33323 360.053 4.5 347.016 4.5 331H-1.5C-1.5 346.984 -1.66656 359.947 -1.99833 369.9L3.99834 370.1ZM4.49935 331.062C4.83328 315.034 5 294.845 5 270.5H-0.999998C-0.999998 294.822 -1.16661 314.966 -1.49935 330.938L4.49935 331.062ZM2 273.5H13.5V267.5H2V273.5ZM10.5062 270.693C11.8546 291.594 15.5654 311.183 21.654 329.449L27.3461 327.551C21.4346 309.817 17.812 290.74 16.4938 270.307L10.5062 270.693ZM21.6701 329.496C28.152 347.918 37.922 362.879 51.0329 374.265L54.9671 369.735C42.7447 359.121 33.5147 345.082 27.3299 327.504L21.6701 329.496ZM51.0971 374.319C64.7643 385.533 82.6632 391 104.5 391V385C83.6702 385 67.2357 379.8 54.903 369.681L51.0971 374.319ZM104.5 391C116.226 391 127.148 388.756 137.227 384.238L134.773 378.762C125.519 382.911 115.44 385 104.5 385V391ZM137.227 384.238C147.451 379.654 155.724 372.421 162.024 362.622L156.976 359.378C151.276 368.246 143.882 374.679 134.773 378.762L137.227 384.238ZM162.024 362.622C168.42 352.672 171.5 340.061 171.5 325H165.5C165.5 339.273 162.58 350.661 156.976 359.378L162.024 362.622ZM171.5 325C171.5 310.823 168.035 298.245 161.021 287.374L155.979 290.626C162.299 300.422 165.5 311.844 165.5 325H171.5ZM161.058 287.432C154.489 276.714 145.203 266.942 133.289 258.092L129.711 262.908C141.13 271.391 149.845 280.619 155.942 290.568L161.058 287.432ZM133.366 258.151C121.915 249.058 108.475 239.821 93.0598 230.437L89.9402 235.563C105.191 244.846 118.418 253.942 129.634 262.849L133.366 258.151ZM93.1141 230.471C77.4959 220.502 62.8822 210.538 49.2715 200.579L45.7285 205.421C59.4511 215.462 74.1707 225.498 89.8859 235.529L93.1141 230.471ZM49.2715 200.579C35.889 190.787 25.1599 179.395 17.044 166.41L11.956 169.59C20.5068 183.271 31.7777 195.213 45.7285 205.421L49.2715 200.579ZM17.0725 166.457C9.39882 153.667 5.5 138.388 5.5 120.5H-0.499997C-0.499997 139.279 3.60118 155.666 11.9275 169.543L17.0725 166.457ZM5.5 120.5C5.5 100.624 10.0581 84.6167 18.937 72.2496L14.063 68.7504C4.27528 82.3833 -0.499997 99.7095 -0.499997 120.5H5.5ZM18.9074 72.2901C28.2531 59.7217 40.1572 50.3901 54.6669 44.2637L52.3331 38.7362C36.8428 45.2766 24.0803 55.2782 14.0926 68.7099L18.9074 72.2901ZM54.6453 44.2728C69.5992 38.0961 85.5417 35 102.5 35V29C84.7916 29 68.0675 32.2372 52.3547 38.7272L54.6453 44.2728ZM295.344 387.5L296.756 384.853L296.756 384.853L295.344 387.5ZM272.844 365.5L275.488 364.083L275.488 364.083L272.844 365.5ZM275.344 298L277.754 299.786L277.77 299.765L277.785 299.744L275.344 298ZM300.844 275.5L299.436 272.851L299.419 272.86L299.401 272.87L300.844 275.5ZM334.344 261.5L335.243 264.362L335.268 264.354L335.292 264.346L334.344 261.5ZM367.844 250.5L368.765 253.355L368.792 253.346L368.819 253.337L367.844 250.5ZM393.844 238L392.18 235.504L392.151 235.523L392.123 235.542L393.844 238ZM398.344 157L395.66 158.342L395.698 158.416L395.739 158.488L398.344 157ZM382.844 141.5L381.56 144.211L381.586 144.224L381.613 144.236L382.844 141.5ZM335.344 140.5L336.018 143.423L336.071 143.411L336.124 143.397L335.344 140.5ZM314.844 153L312.489 151.141L309.679 154.701L314.054 155.894L314.844 153ZM332.844 165L330.476 166.842L330.533 166.915L330.594 166.985L332.844 165ZM330.844 208.5L328.911 206.205L328.881 206.231L328.851 206.258L330.844 208.5ZM284.844 207L282.444 208.8L282.466 208.83L282.489 208.859L284.844 207ZM283.844 162L281.528 160.093L281.494 160.135L281.461 160.178L283.844 162ZM301.844 146L300.18 143.504L300.167 143.513L300.154 143.521L301.844 146ZM332.344 132.5L331.51 129.618L331.499 129.621L331.489 129.624L332.344 132.5ZM411.344 132L410.423 134.855L410.477 134.873L410.532 134.888L411.344 132ZM437.844 147L435.722 149.121L435.767 149.165L435.813 149.208L437.844 147ZM454.344 176L451.419 176.668L451.421 176.678L451.424 176.687L454.344 176ZM461.344 373.5L458.71 374.937L458.79 375.083L458.886 375.22L461.344 373.5ZM481.844 376L480.502 373.317L480.444 373.346L480.387 373.378L481.844 376ZM493.344 368.5L495.93 366.979L494.207 364.051L491.515 366.122L493.344 368.5ZM498.344 377L500.231 379.332L502.24 377.706L500.93 375.479L498.344 377ZM476.844 390.5L475.602 387.769L475.578 387.78L475.554 387.791L476.844 390.5ZM408.844 376L406.133 377.284L406.16 377.341L406.189 377.397L408.844 376ZM404.344 352.5H407.344V341.954L401.793 350.921L404.344 352.5ZM373.344 384.5L371.779 381.94L371.779 381.94L373.344 384.5ZM381.344 363.5L379.727 360.973L379.703 360.988L379.68 361.004L381.344 363.5ZM404.344 339.5L406.852 341.146L407.344 340.396V339.5H404.344ZM404.344 240H407.344V230.341L401.872 238.3L404.344 240ZM388.344 254L389.736 256.657L389.784 256.632L389.832 256.605L388.344 254ZM365.844 265.5L364.502 262.817L364.502 262.817L365.844 265.5ZM342.844 279.5L344.587 281.941L344.598 281.934L344.608 281.926L342.844 279.5ZM328.344 360.5L326.08 362.469L326.102 362.494L326.124 362.518L328.344 360.5ZM331.344 392.5C317.722 392.5 306.23 389.906 296.756 384.853L293.932 390.147C304.457 395.76 316.966 398.5 331.344 398.5V392.5ZM296.756 384.853C287.24 379.778 280.188 372.856 275.488 364.083L270.199 366.917C275.499 376.81 283.447 384.555 293.932 390.147L296.756 384.853ZM275.488 364.083C270.751 355.241 268.344 345.072 268.344 333.5H262.344C262.344 345.928 264.936 357.092 270.199 366.917L275.488 364.083ZM268.344 333.5C268.344 319.278 271.574 308.129 277.754 299.786L272.933 296.214C265.78 305.871 262.344 318.389 262.344 333.5H268.344ZM277.785 299.744C284.182 290.788 292.337 283.586 302.286 278.13L299.401 272.87C288.684 278.747 279.839 286.546 272.903 296.256L277.785 299.744ZM302.251 278.149C312.753 272.57 323.75 267.974 335.243 264.362L333.444 258.638C321.604 262.359 310.267 267.097 299.436 272.851L302.251 278.149ZM335.292 264.346C347.285 260.349 358.442 256.685 368.765 253.355L366.923 247.645C356.579 250.982 345.403 254.651 333.395 258.654L335.292 264.346ZM368.819 253.337C379.657 249.612 388.599 245.333 395.564 240.458L392.123 235.542C385.755 240 377.364 244.055 366.869 247.663L368.819 253.337ZM395.508 240.496C403.247 235.337 407.344 228.28 407.344 219.5H401.344C401.344 226.054 398.441 231.33 392.18 235.504L395.508 240.496ZM407.344 219.5V185.5H401.344V219.5H407.344ZM407.344 185.5C407.344 173.214 405.304 163.134 400.948 155.512L395.739 158.488C399.384 164.866 401.344 173.786 401.344 185.5H407.344ZM401.027 155.658C397.091 147.787 391.448 142.082 384.075 138.764L381.613 144.236C387.572 146.918 392.263 151.547 395.66 158.342L401.027 155.658ZM384.128 138.789C377.296 135.553 369.166 134 359.844 134V140C368.521 140 375.725 141.447 381.56 144.211L384.128 138.789ZM359.844 134C351.873 134 343.443 135.213 334.564 137.603L336.124 143.397C344.578 141.121 352.481 140 359.844 140V134ZM334.669 137.577C325.41 139.714 317.956 144.217 312.489 151.141L317.198 154.859C321.732 149.117 327.944 145.286 336.018 143.423L334.669 137.577ZM314.054 155.894C320.761 157.723 326.208 161.354 330.476 166.842L335.212 163.158C330.147 156.646 323.593 152.276 315.633 150.106L314.054 155.894ZM330.594 166.985C335.04 172.023 337.344 178.45 337.344 186.5H343.344C343.344 177.217 340.648 169.31 335.093 163.015L330.594 166.985ZM337.344 186.5C337.344 195.075 334.477 201.519 328.911 206.205L332.776 210.795C339.877 204.815 343.344 196.592 343.344 186.5H337.344ZM328.851 206.258C323.488 211.025 316.569 213.5 307.844 213.5V219.5C317.785 219.5 326.2 216.642 332.837 210.742L328.851 206.258ZM307.844 213.5C298.148 213.5 291.476 210.559 287.198 205.141L282.489 208.859C288.212 216.108 296.873 219.5 307.844 219.5V213.5ZM287.244 205.2C282.65 199.074 280.344 192.045 280.344 184H274.344C274.344 193.288 277.038 201.592 282.444 208.8L287.244 205.2ZM280.344 184C280.344 175.484 282.388 168.842 286.227 163.822L281.461 160.178C276.633 166.491 274.344 174.516 274.344 184H280.344ZM286.16 163.907C290.613 158.5 296.388 153.351 303.534 148.479L300.154 143.521C292.633 148.649 286.408 154.167 281.528 160.093L286.16 163.907ZM303.508 148.496C311.191 143.374 321.062 138.984 333.199 135.376L331.489 129.624C318.959 133.349 308.497 137.959 300.18 143.504L303.508 148.496ZM333.178 135.382C345.534 131.805 359.248 130 374.344 130V124C358.773 124 344.487 125.862 331.51 129.618L333.178 135.382ZM374.344 130C388.458 130 400.465 131.643 410.423 134.855L412.265 129.145C401.556 125.69 388.896 124 374.344 124V130ZM410.532 134.888C420.764 137.766 429.128 142.527 435.722 149.121L439.965 144.879C432.56 137.473 423.257 132.234 412.156 129.112L410.532 134.888ZM435.813 149.208C443.673 156.44 448.88 165.558 451.419 176.668L457.268 175.332C454.475 163.109 448.681 152.894 439.875 144.792L435.813 149.208ZM451.424 176.687C454.021 187.725 455.344 201.313 455.344 217.5H461.344C461.344 201.02 460 186.941 457.264 175.313L451.424 176.687ZM455.344 217.5V355.5H461.344V217.5H455.344ZM455.344 355.5C455.344 363.929 456.331 370.574 458.71 374.937L463.977 372.063C462.357 369.093 461.344 363.738 461.344 355.5H455.344ZM458.886 375.22C461.912 379.543 466.618 381.5 472.344 381.5V375.5C468.07 375.5 465.442 374.124 463.801 371.78L458.886 375.22ZM472.344 381.5C476.202 381.5 479.869 380.529 483.301 378.622L480.387 373.378C477.819 374.804 475.152 375.5 472.344 375.5V381.5ZM483.185 378.683C486.75 376.901 490.751 374.279 495.173 370.878L491.515 366.122C487.27 369.387 483.604 371.766 480.502 373.317L483.185 378.683ZM490.758 370.021L495.758 378.521L500.93 375.479L495.93 366.979L490.758 370.021ZM496.456 374.668C489.631 380.194 482.679 384.552 475.602 387.769L478.085 393.231C485.675 389.781 493.057 385.14 500.231 379.332L496.456 374.668ZM475.554 387.791C469.089 390.87 460.572 392.5 449.844 392.5V398.5C461.116 398.5 470.598 396.797 478.134 393.209L475.554 387.791ZM449.844 392.5C439.456 392.5 431.295 390.872 425.185 387.817L422.502 393.183C429.725 396.795 438.898 398.5 449.844 398.5V392.5ZM425.185 387.817C419.055 384.752 414.527 380.357 411.499 374.603L406.189 377.397C409.827 384.31 415.299 389.582 422.502 393.183L425.185 387.817ZM411.555 374.716C408.797 368.894 407.344 361.53 407.344 352.5H401.344C401.344 362.137 402.89 370.439 406.133 377.284L411.555 374.716ZM401.793 350.921C393.332 364.589 383.315 374.891 371.779 381.94L374.908 387.06C387.372 379.443 398.023 368.411 406.895 354.079L401.793 350.921ZM371.779 381.94C360.313 388.948 346.869 392.5 331.344 392.5V398.5C347.818 398.5 362.375 394.719 374.908 387.06L371.779 381.94ZM355.344 374.5C365.288 374.5 374.531 371.648 383.008 365.996L379.68 361.004C372.157 366.019 364.066 368.5 355.344 368.5V374.5ZM382.961 366.027C391.737 360.41 399.685 352.068 406.852 341.146L401.836 337.854C395.003 348.266 387.617 355.923 379.727 360.973L382.961 366.027ZM407.344 339.5V240H401.344V339.5H407.344ZM401.872 238.3C398.516 243.182 393.557 247.565 386.855 251.395L389.832 256.605C397.13 252.434 402.839 247.485 406.816 241.7L401.872 238.3ZM386.952 251.342C379.97 254.999 372.487 258.824 364.502 262.817L367.185 268.183C375.2 264.176 382.717 260.334 389.736 256.657L386.952 251.342ZM364.502 262.817C356.352 266.892 348.544 271.645 341.079 277.074L344.608 281.926C351.81 276.689 359.335 272.108 367.185 268.183L364.502 262.817ZM341.1 277.059C333.729 282.324 327.616 289.151 322.752 297.488L327.935 300.512C332.405 292.849 337.958 286.676 344.587 281.941L341.1 277.059ZM322.752 297.488C317.744 306.075 315.344 316.806 315.344 329.5H321.344C321.344 317.527 323.611 307.925 327.935 300.512L322.752 297.488ZM315.344 329.5C315.344 343.016 318.818 354.117 326.08 362.469L330.608 358.531C324.536 351.549 321.344 341.984 321.344 329.5H315.344ZM326.124 362.518C333.443 370.569 343.299 374.5 355.344 374.5V368.5C344.722 368.5 336.577 365.097 330.564 358.482L326.124 362.518ZM719.785 132.5L718.577 135.246L718.642 135.275L718.708 135.3L719.785 132.5ZM741.285 146.5L739.104 148.56L739.107 148.563L741.285 146.5ZM753.785 171L750.864 171.682L750.874 171.728L750.886 171.773L753.785 171ZM765.785 374L763.733 376.189L763.766 376.22L763.8 376.25L765.785 374ZM793.785 381.5H796.785V378.5H793.785V381.5ZM793.785 392L793.609 394.995L796.785 395.182V392H793.785ZM767.285 391L767.119 393.995L767.16 393.998L767.202 393.999L767.285 391ZM697.785 391L697.876 393.999L697.919 393.997L697.961 393.995L697.785 391ZM672.785 392H669.785V395.182L672.961 394.995L672.785 392ZM672.785 381.5V378.5H669.785V381.5H672.785ZM701.285 171.5L698.348 172.112L698.351 172.125L698.354 172.137L701.285 171.5ZM690.785 152.5L688.733 154.689L688.771 154.724L688.81 154.758L690.785 152.5ZM633.785 155.5L632.026 153.07L632.005 153.085L631.985 153.1L633.785 155.5ZM611.285 184.5L608.559 183.247L608.551 183.264L608.544 183.282L611.285 184.5ZM610.285 374L608.092 376.047L608.127 376.085L608.164 376.121L610.285 374ZM634.285 381.5H637.285V378.5H634.285V381.5ZM634.285 392L634.098 394.994L637.285 395.193V392H634.285ZM609.785 391L609.598 393.994L609.646 393.997L609.694 393.999L609.785 391ZM540.785 391L540.866 393.999L540.907 393.998L540.947 393.996L540.785 391ZM513.285 392H510.285V395.171L513.452 394.995L513.285 392ZM513.285 381.5V378.5H510.285V381.5H513.285ZM540.785 374L538.8 371.75L538.766 371.78L538.733 371.811L540.785 374ZM541.785 155.5L539.306 157.19L539.325 157.217L539.344 157.244L541.785 155.5ZM513.285 144.5H510.285V147.5H513.285V144.5ZM513.285 134L513.565 131.013L510.285 130.706V134H513.285ZM575.785 134L576.094 136.984L576.138 136.98L576.182 136.974L575.785 134ZM603.285 128.5H606.285V124.545L602.476 125.611L603.285 128.5ZM603.285 183H600.285L606.052 184.16L603.285 183ZM638.785 139.5L637.353 136.864L637.34 136.871L637.328 136.878L638.785 139.5ZM687.285 130C700.38 130 710.759 131.806 718.577 135.246L720.993 129.754C712.145 125.861 700.857 124 687.285 124V130ZM718.708 135.3C727.009 138.493 733.782 142.925 739.104 148.56L743.466 144.44C737.455 138.075 729.895 133.174 720.862 129.7L718.708 135.3ZM739.107 148.563C744.681 154.447 748.63 162.107 750.864 171.682L756.707 170.318C754.274 159.892 749.889 151.22 743.463 144.437L739.107 148.563ZM750.886 171.773C753.457 181.412 754.785 194.617 754.785 211.5H760.785C760.785 194.383 759.447 180.588 756.684 170.227L750.886 171.773ZM754.785 211.5V345.5H760.785V211.5H754.785ZM754.785 345.5C754.785 359.65 757.433 370.282 763.733 376.189L767.837 371.811C763.47 367.718 760.785 359.35 760.785 345.5H754.785ZM763.8 376.25C770.292 381.978 780.536 384.5 793.785 384.5V378.5C781.034 378.5 772.611 376.022 767.77 371.75L763.8 376.25ZM790.785 381.5V392H796.785V381.5H790.785ZM793.961 389.005C788.246 388.669 779.373 388.335 767.368 388.001L767.202 393.999C779.197 394.332 787.991 394.664 793.609 394.995L793.961 389.005ZM767.452 388.005C755.398 387.335 743.509 387 731.785 387V393C743.395 393 755.173 393.332 767.119 393.995L767.452 388.005ZM731.785 387C720.393 387 709.001 387.335 697.609 388.005L697.961 393.995C709.236 393.332 720.511 393 731.785 393V387ZM697.694 388.001C686.687 388.335 678.319 388.669 672.609 389.005L672.961 394.995C678.584 394.664 686.883 394.332 697.876 393.999L697.694 388.001ZM675.785 392V381.5H669.785V392H675.785ZM672.785 384.5C684.427 384.5 693.466 381.954 698.978 376.047L694.592 371.953C690.771 376.046 683.81 378.5 672.785 378.5V384.5ZM698.978 376.047C704.49 370.142 706.785 359.584 706.785 345.5H700.785C700.785 359.416 698.414 367.858 694.592 371.953L698.978 376.047ZM706.785 345.5V197.5H700.785V345.5H706.785ZM706.785 197.5C706.785 187.666 705.938 178.78 704.217 170.863L698.354 172.137C699.966 179.553 700.785 188 700.785 197.5H706.785ZM704.222 170.888C702.444 162.351 698.658 155.402 692.761 150.242L688.81 154.758C693.579 158.931 696.793 164.649 698.348 172.112L704.222 170.888ZM692.837 150.311C686.738 144.594 677.868 142 666.785 142V148C677.036 148 684.166 150.406 688.733 154.689L692.837 150.311ZM666.785 142C653.842 142 642.222 145.687 632.026 153.07L635.545 157.93C644.682 151.313 655.061 148 666.785 148V142ZM631.985 153.1C622.192 160.445 614.4 170.535 608.559 183.247L614.011 185.752C619.504 173.798 626.712 164.555 635.585 157.9L631.985 153.1ZM608.544 183.282C603.017 195.716 600.285 209.64 600.285 225H606.285C606.285 210.36 608.886 197.284 614.027 185.718L608.544 183.282ZM600.285 225V345.5H606.285V225H600.285ZM600.285 345.5C600.285 359.584 602.58 370.142 608.092 376.047L612.478 371.953C608.657 367.858 606.285 359.416 606.285 345.5H600.285ZM608.164 376.121C613.971 381.929 622.92 384.5 634.285 384.5V378.5C623.65 378.5 616.599 376.071 612.406 371.879L608.164 376.121ZM631.285 381.5V392H637.285V381.5H631.285ZM634.472 389.006C629.089 388.669 620.882 388.335 609.876 388.001L609.694 393.999C620.688 394.332 628.815 394.664 634.098 394.994L634.472 389.006ZM609.972 388.006C599.238 387.335 588.009 387 576.285 387V393C587.895 393 598.999 393.332 609.598 393.994L609.972 388.006ZM576.285 387C564.893 387 553.006 387.335 540.623 388.004L540.947 393.996C553.231 393.332 565.01 393 576.285 393V387ZM540.704 388.001C528.365 388.335 519.163 388.669 513.119 389.005L513.452 394.995C519.407 394.665 528.538 394.332 540.866 393.999L540.704 388.001ZM516.285 392V381.5H510.285V392H516.285ZM513.285 384.5C526.508 384.5 536.65 381.989 542.837 376.189L538.733 371.811C534.253 376.011 526.063 378.5 513.285 378.5V384.5ZM542.77 376.25C549.457 370.35 552.285 359.687 552.285 345.5H546.285C546.285 359.313 543.447 367.65 538.8 371.75L542.77 376.25ZM552.285 345.5V188.5H546.285V345.5H552.285ZM552.285 188.5C552.285 173.287 549.772 161.521 544.226 153.756L539.344 157.244C543.798 163.479 546.285 173.713 546.285 188.5H552.285ZM544.264 153.81C538.439 145.267 527.686 141.5 513.285 141.5V147.5C526.884 147.5 535.132 151.067 539.306 157.19L544.264 153.81ZM516.285 144.5V134H510.285V144.5H516.285ZM513.005 136.987C523.758 137.995 534.185 138.5 544.285 138.5V132.5C534.385 132.5 524.145 132.005 513.565 131.013L513.005 136.987ZM544.285 138.5C555.705 138.5 566.309 137.996 576.094 136.984L575.476 131.016C565.928 132.004 555.532 132.5 544.285 132.5V138.5ZM576.182 136.974C586.299 135.625 595.605 133.766 604.094 131.389L602.476 125.611C594.298 127.901 585.272 129.709 575.389 131.026L576.182 136.974ZM600.285 128.5V183H606.285V128.5H600.285ZM606.052 184.16C614.538 163.923 625.989 150.041 640.242 142.122L637.328 136.878C621.581 145.626 609.365 160.744 600.519 181.84L606.052 184.16ZM640.218 142.136C655.124 134.035 670.799 130 687.285 130V124C669.771 124 653.113 128.298 637.353 136.864L640.218 142.136ZM1048.55 -1.95503e-05H1051.55V-3.9554L1047.75 -2.88891L1048.55 -1.95503e-05ZM1056.05 371L1053.58 372.69L1053.62 372.755L1053.67 372.818L1056.05 371ZM1084.55 381.5H1087.55V378.5H1084.55V381.5ZM1084.55 392L1084.27 394.986L1087.55 395.304V392H1084.55ZM1021.55 392L1021.26 389.015L1021.25 389.016L1021.55 392ZM994.555 397.5H991.555V401.61L995.469 400.357L994.555 397.5ZM986.555 27L984.076 28.69L984.121 28.7553L984.168 28.8181L986.555 27ZM958.555 16H955.555V19H958.555V16ZM958.555 5.49997L958.835 2.51307L955.555 2.20556V5.49997H958.555ZM1021.05 5.49997L1021.35 8.48508L1021.4 8.48017L1021.45 8.47365L1021.05 5.49997ZM976.055 136.5L974.654 139.153L974.669 139.161L974.684 139.169L976.055 136.5ZM1002.05 168.5L1004.08 170.711L1005.52 169.397L1004.9 167.551L1002.05 168.5ZM996.055 174L993.259 175.087L994.848 179.175L998.082 176.211L996.055 174ZM975.555 148L973.956 150.539L973.99 150.56L974.025 150.581L975.555 148ZM898.555 170L901.127 171.543L901.133 171.534L901.138 171.525L898.555 170ZM881.055 263H884.055V262.988L884.055 262.976L881.055 263ZM888.055 331L885.154 331.766L885.156 331.773L885.158 331.78L888.055 331ZM908.555 369.5L906.516 371.701L906.536 371.72L906.557 371.738L908.555 369.5ZM977.055 365.5L974.901 363.412L974.884 363.429L974.868 363.446L977.055 365.5ZM996.055 318L998.812 316.818L993.069 317.711L996.055 318ZM1000.55 328.5L1003.52 328.936L1003.65 328.098L1003.31 327.318L1000.55 328.5ZM976.555 381L978.618 383.178L978.633 383.164L978.648 383.149L976.555 381ZM871.555 384.5L869.916 387.013L869.947 387.033L869.979 387.053L871.555 384.5ZM836.055 339.5L833.279 340.638L833.282 340.646L833.285 340.654L836.055 339.5ZM838.555 187.5L835.88 186.141L835.876 186.15L835.871 186.158L838.555 187.5ZM879.555 142L881.076 144.586L881.076 144.586L879.555 142ZM1045.55 -1.95503e-05V337.5H1051.55V-1.95503e-05H1045.55ZM1045.55 337.5C1045.55 352.73 1048.07 364.621 1053.58 372.69L1058.53 369.31C1054.04 362.713 1051.55 352.27 1051.55 337.5H1045.55ZM1053.67 372.818C1059.83 380.901 1070.48 384.5 1084.55 384.5V378.5C1071.3 378.5 1062.95 375.099 1058.44 369.182L1053.67 372.818ZM1081.55 381.5V392H1087.55V381.5H1081.55ZM1084.84 389.014C1074.41 388.005 1063.98 387.5 1053.55 387.5V393.5C1063.79 393.5 1074.03 393.995 1084.27 394.986L1084.84 389.014ZM1053.55 387.5C1042.13 387.5 1031.37 388.004 1021.26 389.015L1021.85 394.985C1031.74 393.996 1042.31 393.5 1053.55 393.5V387.5ZM1021.25 389.016C1011.4 390.035 1002.19 391.907 993.64 394.643L995.469 400.357C1003.59 397.76 1012.38 395.965 1021.86 394.984L1021.25 389.016ZM997.555 397.5V60H991.555V397.5H997.555ZM997.555 60C997.555 44.7609 994.867 32.9603 988.941 25.1819L984.168 28.8181C988.909 35.0397 991.555 45.239 991.555 60H997.555ZM989.033 25.31C983.22 16.784 972.655 13 958.555 13V19C971.788 19 979.889 22.5493 984.076 28.69L989.033 25.31ZM961.555 16V5.49997H955.555V16H961.555ZM958.275 8.48687C969.028 9.49499 979.455 9.99998 989.555 9.99998V3.99998C979.655 3.99998 969.415 3.50496 958.835 2.51307L958.275 8.48687ZM989.555 9.99998C1000.65 9.99998 1011.25 9.49588 1021.35 8.48508L1020.76 2.51486C1010.86 3.50407 1000.46 3.99998 989.555 3.99998V9.99998ZM1021.45 8.47365C1031.57 7.12473 1040.87 5.2657 1049.36 2.88887L1047.75 -2.88891C1039.57 -0.599055 1030.54 1.20858 1020.66 2.52628L1021.45 8.47365ZM936.055 130C950.274 130 963.12 133.066 974.654 139.153L977.455 133.847C964.989 127.268 951.169 124 936.055 124V130ZM974.684 139.169C986.22 145.093 994.419 155.08 999.209 169.449L1004.9 167.551C999.69 151.92 990.556 140.574 977.425 133.831L974.684 139.169ZM1000.03 166.289L994.028 171.789L998.082 176.211L1004.08 170.711L1000.03 166.289ZM998.851 172.913C993.998 160.435 986.785 151.168 977.084 145.419L974.025 150.581C982.325 155.499 988.778 163.565 993.259 175.087L998.851 172.913ZM977.153 145.461C967.643 139.473 956.915 136.5 945.055 136.5V142.5C955.861 142.5 965.467 145.193 973.956 150.539L977.153 145.461ZM945.055 136.5C924.724 136.5 908.358 147.486 895.971 168.475L901.138 171.525C912.751 151.848 927.385 142.5 945.055 142.5V136.5ZM895.982 168.456C883.551 189.175 877.72 220.853 878.055 263.024L884.055 262.976C883.723 221.147 889.558 190.825 901.127 171.543L895.982 168.456ZM878.055 263C878.055 290.807 880.397 313.757 885.154 331.766L890.955 330.234C886.379 312.91 884.055 290.526 884.055 263H878.055ZM885.158 331.78C889.907 349.42 896.952 362.846 906.516 371.701L910.593 367.299C902.157 359.488 895.535 347.246 890.952 330.22L885.158 331.78ZM906.557 371.738C916.463 380.583 928.349 385 942.055 385V379C929.76 379 919.313 375.084 910.553 367.262L906.557 371.738ZM942.055 385C956.018 385 968.441 379.052 979.241 367.554L974.868 363.446C965.002 373.948 954.091 379 942.055 379V385ZM979.208 367.588C990.492 355.952 996.998 339.393 999.041 318.289L993.069 317.711C991.111 337.94 984.95 353.048 974.901 363.412L979.208 367.588ZM993.297 319.182L997.797 329.682L1003.31 327.318L998.812 316.818L993.297 319.182ZM997.587 328.064C994.321 350.272 986.533 367.097 974.462 378.851L978.648 383.149C991.909 370.237 1000.12 352.061 1003.52 328.936L997.587 328.064ZM974.491 378.822C962.5 390.182 946.301 396 925.555 396V402C947.475 402 965.276 395.818 978.618 383.178L974.491 378.822ZM925.555 396C905.718 396 888.275 391.291 873.13 381.947L869.979 387.053C886.168 397.042 904.725 402 925.555 402V396ZM873.193 381.987C858.452 372.373 846.969 357.894 838.824 338.346L833.285 340.654C841.807 361.106 853.991 376.627 869.916 387.013L873.193 381.987ZM838.831 338.362C830.691 318.503 826.555 293.42 826.555 263H820.555C820.555 293.913 824.751 319.831 833.279 340.638L838.831 338.362ZM826.555 263C826.555 232.975 831.507 208.304 841.238 188.842L835.871 186.158C825.602 206.696 820.555 232.359 820.555 263H826.555ZM841.229 188.859C851.344 168.955 864.643 154.252 881.076 144.586L878.034 139.414C860.467 149.748 846.432 165.379 835.88 186.141L841.229 188.859ZM881.076 144.586C897.592 134.87 915.896 130 936.055 130V124C914.88 124 895.517 129.13 878.034 139.414L881.076 144.586ZM1293.51 133L1291.97 135.572L1292 135.589L1292.02 135.605L1293.51 133ZM1309.01 148.5L1306.36 149.897L1306.4 149.982L1306.45 150.064L1309.01 148.5ZM1305.51 194L1303.23 192.048L1303.23 192.057L1305.51 194ZM1261.01 196.5L1259.03 198.749L1259.06 198.778L1259.09 198.805L1261.01 196.5ZM1258.01 157.5L1255.61 155.7L1255.6 155.713L1255.59 155.726L1258.01 157.5ZM1271.51 145L1273.06 147.572L1276.75 145.353L1273.39 142.657L1271.51 145ZM1259.51 141.5L1259.62 144.498L1259.67 144.496L1259.73 144.492L1259.51 141.5ZM1234.51 150.5L1236.22 152.963L1236.26 152.938L1236.29 152.913L1234.51 150.5ZM1215.01 171.5L1217.54 173.117L1217.55 173.095L1217.57 173.072L1215.01 171.5ZM1202.51 198.5L1199.65 197.611L1199.65 197.611L1202.51 198.5ZM1211.51 373.5L1209.91 376.039L1209.95 376.06L1209.98 376.081L1211.51 373.5ZM1249.01 381.5H1252.01V378.5H1249.01V381.5ZM1249.01 392L1248.88 394.997L1252.01 395.133V392H1249.01ZM1216.01 391L1215.87 393.997L1215.91 393.998L1215.94 393.999L1216.01 391ZM1135.51 391L1135.6 393.999L1135.64 393.998L1135.68 393.995L1135.51 391ZM1108.01 392H1105.01V395.162L1108.17 394.996L1108.01 392ZM1108.01 381.5V378.5H1105.01V381.5H1108.01ZM1135.51 374L1133.53 371.75L1133.49 371.78L1133.46 371.811L1135.51 374ZM1136.51 155.5L1134.03 157.19L1134.05 157.217L1134.07 157.244L1136.51 155.5ZM1108.01 144.5H1105.01V147.5H1108.01V144.5ZM1108.01 134L1108.29 131.013L1105.01 130.706V134H1108.01ZM1170.51 134L1170.82 136.984L1170.86 136.98L1170.91 136.974L1170.51 134ZM1198.01 128.5H1201.01V124.545L1197.2 125.611L1198.01 128.5ZM1198.01 186H1195.01L1200.78 187.147L1198.01 186ZM1214.01 158L1211.6 156.214L1214.01 158ZM1238.01 136L1239.57 138.564L1239.6 138.544L1239.63 138.524L1238.01 136ZM1269.01 130C1278.27 130 1285.87 131.913 1291.97 135.572L1295.06 130.428C1287.82 126.087 1279.09 124 1269.01 124V130ZM1292.02 135.605C1298.59 139.358 1303.32 144.131 1306.36 149.897L1311.67 147.103C1308.03 140.202 1302.43 134.642 1295 130.395L1292.02 135.605ZM1306.45 150.064C1309.8 155.551 1311.51 161.834 1311.51 169H1317.51C1317.51 160.833 1315.55 153.449 1311.57 146.936L1306.45 150.064ZM1311.51 169C1311.51 177.988 1308.74 185.619 1303.23 192.048L1307.79 195.952C1314.28 188.381 1317.51 179.345 1317.51 169H1311.51ZM1303.23 192.057C1298.19 197.978 1291.4 201 1282.51 201V207C1292.95 207 1301.5 203.356 1307.8 195.943L1303.23 192.057ZM1282.51 201C1274.83 201 1268.36 198.715 1262.93 194.195L1259.09 198.805C1265.67 204.285 1273.53 207 1282.51 207V201ZM1263 194.25C1258.07 189.906 1255.51 183.946 1255.51 176H1249.51C1249.51 185.387 1252.62 193.094 1259.03 198.749L1263 194.25ZM1255.51 176C1255.51 169.185 1257.21 163.67 1260.43 159.274L1255.59 155.726C1251.48 161.33 1249.51 168.149 1249.51 176H1255.51ZM1260.41 159.3C1264.21 154.233 1268.43 150.346 1273.06 147.572L1269.97 142.428C1264.59 145.654 1259.81 150.1 1255.61 155.7L1260.41 159.3ZM1273.39 142.657C1269.4 139.472 1264.64 138.126 1259.3 138.508L1259.73 144.492C1263.72 144.207 1266.95 145.194 1269.64 147.343L1273.39 142.657ZM1259.4 138.502C1249.76 138.859 1240.85 142.084 1232.73 148.087L1236.29 152.913C1243.51 147.583 1251.26 144.808 1259.62 144.498L1259.4 138.502ZM1232.8 148.037C1224.76 153.627 1217.99 160.941 1212.46 169.928L1217.57 173.072C1222.7 164.725 1228.93 158.04 1236.22 152.963L1232.8 148.037ZM1212.48 169.883C1207 178.448 1202.72 187.693 1199.65 197.611L1205.38 199.389C1208.3 189.973 1212.35 181.219 1217.54 173.117L1212.48 169.883ZM1199.65 197.611C1196.58 207.506 1195.01 216.809 1195.01 225.5H1201.01C1201.01 217.525 1202.45 208.827 1205.38 199.389L1199.65 197.611ZM1195.01 225.5V340.5H1201.01V225.5H1195.01ZM1195.01 340.5C1195.01 357.279 1199.64 369.57 1209.91 376.039L1213.11 370.961C1205.38 366.096 1201.01 356.388 1201.01 340.5H1195.01ZM1209.98 376.081C1219.63 381.797 1232.74 384.5 1249.01 384.5V378.5C1233.29 378.5 1221.4 375.87 1213.04 370.919L1209.98 376.081ZM1246.01 381.5V392H1252.01V381.5H1246.01ZM1249.14 389.003C1241.44 388.668 1230.42 388.334 1216.08 388.001L1215.94 393.999C1230.27 394.332 1241.25 394.665 1248.88 394.997L1249.14 389.003ZM1216.15 388.003C1202.1 387.334 1187.22 387 1171.51 387V393C1187.14 393 1201.92 393.332 1215.87 393.997L1216.15 388.003ZM1171.51 387C1159.46 387 1147.4 387.335 1135.35 388.005L1135.68 393.995C1147.62 393.332 1159.57 393 1171.51 393V387ZM1135.43 388.001C1123.42 388.335 1114.23 388.669 1107.85 389.004L1108.17 394.996C1114.47 394.665 1123.6 394.332 1135.6 393.999L1135.43 388.001ZM1111.01 392V381.5H1105.01V392H1111.01ZM1108.01 384.5C1121.23 384.5 1131.38 381.989 1137.56 376.189L1133.46 371.811C1128.98 376.011 1120.79 378.5 1108.01 378.5V384.5ZM1137.5 376.25C1144.18 370.35 1147.01 359.687 1147.01 345.5H1141.01C1141.01 359.313 1138.17 367.65 1133.53 371.75L1137.5 376.25ZM1147.01 345.5V188.5H1141.01V345.5H1147.01ZM1147.01 188.5C1147.01 173.287 1144.5 161.521 1138.95 153.756L1134.07 157.244C1138.52 163.479 1141.01 173.713 1141.01 188.5H1147.01ZM1138.99 153.81C1133.17 145.267 1122.41 141.5 1108.01 141.5V147.5C1121.61 147.5 1129.86 151.067 1134.03 157.19L1138.99 153.81ZM1111.01 144.5V134H1105.01V144.5H1111.01ZM1107.73 136.987C1118.48 137.995 1128.91 138.5 1139.01 138.5V132.5C1129.11 132.5 1118.87 132.005 1108.29 131.013L1107.73 136.987ZM1139.01 138.5C1150.43 138.5 1161.04 137.996 1170.82 136.984L1170.2 131.016C1160.65 132.004 1150.26 132.5 1139.01 132.5V138.5ZM1170.91 136.974C1181.03 135.625 1190.33 133.766 1198.82 131.389L1197.2 125.611C1189.02 127.901 1180 129.709 1170.12 131.026L1170.91 136.974ZM1195.01 128.5V186H1201.01V128.5H1195.01ZM1200.78 187.147C1204.68 177.723 1209.89 168.602 1216.42 159.786L1211.6 156.214C1204.8 165.398 1199.34 174.944 1195.24 184.853L1200.78 187.147ZM1216.42 159.786C1222.86 151.09 1230.58 144.024 1239.57 138.564L1236.45 133.436C1226.78 139.309 1218.49 146.91 1211.6 156.214L1216.42 159.786ZM1239.63 138.524C1248.47 132.842 1258.24 130 1269.01 130V124C1257.12 124 1246.22 127.158 1236.39 133.476L1239.63 138.524ZM1509.8 141L1511.22 138.359L1511.22 138.359L1509.8 141ZM1551.3 185L1553.96 183.623L1553.96 183.623L1551.3 185ZM1551.3 342L1553.95 343.395L1553.96 343.386L1553.96 343.377L1551.3 342ZM1509.8 385.5L1511.18 388.162L1511.2 388.152L1511.22 388.141L1509.8 385.5ZM1390.8 385.5L1389.4 388.153L1389.42 388.163L1389.44 388.173L1390.8 385.5ZM1348.8 342L1346.11 343.342L1346.13 343.369L1346.14 343.395L1348.8 342ZM1348.8 185L1346.13 183.623L1346.12 183.641L1346.11 183.658L1348.8 185ZM1390.8 141L1389.4 138.347L1390.8 141ZM1407.8 167L1410.42 168.464L1410.42 168.455L1410.43 168.446L1407.8 167ZM1407.8 360L1405.18 361.464L1405.18 361.474L1405.19 361.484L1407.8 360ZM1492.3 360L1489.7 358.502L1489.69 358.509L1489.69 358.516L1492.3 360ZM1492.3 167L1489.67 168.446L1489.68 168.472L1489.7 168.498L1492.3 167ZM1450.3 130C1472.2 130 1491.53 134.574 1508.37 143.641L1511.22 138.359C1493.39 128.76 1473.06 124 1450.3 124V130ZM1508.37 143.641C1525.1 152.648 1538.53 166.835 1548.63 186.377L1553.96 183.623C1543.39 163.165 1529.16 148.018 1511.22 138.359L1508.37 143.641ZM1548.63 186.377C1558.67 205.807 1563.8 231.451 1563.8 263.5H1569.8C1569.8 230.883 1564.59 204.193 1553.96 183.623L1548.63 186.377ZM1563.8 263.5C1563.8 295.549 1558.67 321.193 1548.63 340.623L1553.96 343.377C1564.59 322.807 1569.8 296.117 1569.8 263.5H1563.8ZM1548.64 340.605C1538.55 359.813 1525.12 373.844 1508.37 382.859L1511.22 388.141C1529.14 378.489 1543.38 363.521 1553.95 343.395L1548.64 340.605ZM1508.41 382.838C1491.57 391.586 1472.22 396 1450.3 396V402C1473.04 402 1493.36 397.414 1511.18 388.162L1508.41 382.838ZM1450.3 396C1428.72 396 1409.36 391.589 1392.16 382.827L1389.44 388.173C1407.57 397.411 1427.88 402 1450.3 402V396ZM1392.2 382.847C1375.13 373.828 1361.54 359.798 1351.45 340.605L1346.14 343.395C1356.72 363.536 1371.13 378.505 1389.4 388.153L1392.2 382.847ZM1351.48 340.658C1341.76 321.219 1336.8 295.56 1336.8 263.5H1330.8C1330.8 296.106 1335.83 322.781 1346.11 343.342L1351.48 340.658ZM1336.8 263.5C1336.8 231.44 1341.76 205.781 1351.48 186.342L1346.11 183.658C1335.83 204.219 1330.8 230.894 1330.8 263.5H1336.8ZM1351.46 186.377C1361.55 166.85 1375.14 152.664 1392.2 143.653L1389.4 138.347C1371.12 148.002 1356.71 163.15 1346.13 183.623L1351.46 186.377ZM1392.2 143.653C1409.39 134.57 1428.73 130 1450.3 130V124C1427.86 124 1407.54 128.764 1389.4 138.347L1392.2 143.653ZM1450.3 134C1431.52 134 1416.5 144.946 1405.17 165.554L1410.43 168.446C1421.09 149.054 1434.41 140 1450.3 140V134ZM1405.18 165.536C1393.78 185.908 1388.3 218.732 1388.3 263.5H1394.3C1394.3 218.934 1399.81 187.426 1410.42 168.464L1405.18 165.536ZM1388.3 263.5C1388.3 308.268 1393.78 341.092 1405.18 361.464L1410.42 358.536C1399.81 339.574 1394.3 308.066 1394.3 263.5H1388.3ZM1405.19 361.484C1416.55 381.447 1431.57 392 1450.3 392V386C1434.35 386 1421.05 377.22 1410.4 358.516L1405.19 361.484ZM1450.3 392C1468.71 392 1483.56 381.422 1494.9 361.484L1489.69 358.516C1479.03 377.245 1465.88 386 1450.3 386V392ZM1494.9 361.498C1506.64 341.115 1512.3 308.274 1512.3 263.5H1506.3C1506.3 308.059 1500.62 339.552 1489.7 358.502L1494.9 361.498ZM1512.3 263.5C1512.3 218.726 1506.64 185.885 1494.9 165.502L1489.7 168.498C1500.62 187.448 1506.3 218.941 1506.3 263.5H1512.3ZM1494.93 165.554C1483.61 144.972 1468.76 134 1450.3 134V140C1465.83 140 1478.99 149.028 1489.67 168.446L1494.93 165.554Z" fill="url(#paint0_linear_26_2)" mask="url(#path-1-outside-1_26_2)"/>
<defs>
<linearGradient id="paint0_linear_26_2" x1="779" y1="-329" x2="798" y2="662.5" gradientUnits="userSpaceOnUse">
<stop stop-color="#595959"/>
<stop offset="1"/>
</linearGradient>
</defs>
</svg>
